<?xml version="1.0" standalone="no"?>
  <!DOCTYPE svg PUBLIC "-//W3C//DTD SVG 1.1//EN" "http://www.w3.org/Graphics/SVG/1.1/DTD/svg11.dtd" >
  <svg>
  <metadata>
  Created by font-carrier
  </metadata>
  <defs>
  <font id="MavenProRegular" horiz-adv-x="1140" vert-adv-y="1140" >
    <font-face
      
      font-family="Maven Pro"
      
      font-weight="400"
      
      font-stretch="normal"
      
      units-per-em="1000"
      
      ascent="800"
      
      descent="-200"
      
    />
      <missing-glyph />

      

      
      <glyph glyph-name="uni21" unicode="&#x21;" d="M148 0L148 80L228 80L228 0L148 0M152 667L224 667L217 168L159 168L152 667Z"  horiz-adv-x="372" vert-adv-y="1000"  />

      
      <glyph glyph-name="uni22" unicode="&#x22;" d="M215 676L298 676L280 475L232 475L215 676M99 475L81 676L164 676L147 475L99 475Z"  horiz-adv-x="381" vert-adv-y="1000"  />

      
      <glyph glyph-name="uni23" unicode="&#x23;" d="M415 523L476 523L455 405L527 405L527 345L445 345L417 186L498 186L498 126L407 126L389 19L328 19L346 126L214 126L195 19L134 19L153 126L71 126L71 186L163 186L190 345L99 345L99 405L201 405L221 523L282 523L262 405L394 405L415 523M356 186L384 345L251 345L224 186L356 186Z"  horiz-adv-x="591" vert-adv-y="1000"  />

      
      <glyph glyph-name="uni24" unicode="&#x24;" d="M515 170Q515 94 463.50 48Q412 2 319-6L319-108L265-108L265-8Q164-5 81 39L81 117Q158 66 265 64L265 318Q228 329 208 336Q188 343 158.50 357.50Q129 372 113.50 388.50Q98 405 86.50 431Q75 457 75 490Q75 560 121.50 612Q168 664 265 674L265 776L319 776L319 676Q400 672 472 636L472 562Q399 603 319 604L319 375Q362 361 391 348Q420 335 451.50 312Q483 289 499 253.50Q515 218 515 170M147 490Q147 452 177 431Q207 410 265 392L265 601Q147 584 147 490M319 66Q443 82 443 170Q443 222 411 251Q379 280 319 301L319 66Z"  horiz-adv-x="577" vert-adv-y="1000"  />

      
      <glyph glyph-name="uni25" unicode="&#x25;" d="M216 664Q276 664 318 623.50Q360 583 360 480Q360 425 347 387Q334 349 312 330Q290 311 266.50 303Q243 295 216 295Q188 295 165 303Q142 311 119.50 330Q97 349 84 387Q71 425 71 480Q71 534 84 572.50Q97 611 119.50 629.50Q142 648 165 656Q188 664 216 664M150.50 374Q150.50 374 162.75 360.50Q175 347 216 347Q257 347 281 374Q305 401 305 480Q305 559 281 585.50Q257 612 216 612Q174 612 150 585.50Q126 559 126 480Q126 401 150.50 374M676 667L257 0L193 0L612 667L676 667M654 3Q626 3 603 11Q580 19 557.50 38Q535 57 522 95Q509 133 509 188Q509 243 522 281Q535 319 557.50 338Q580 357 603 365Q626 373 654 373Q681 373 704.50 365Q728 357 750 338Q772 319 785 281Q798 243 798 188Q798 133 785 95Q772 57 750 38Q728 19 704.50 11Q681 3 654 3M719 294Q719 294 707 307.50Q695 321 654 321Q613 321 588.50 294Q564 267 564 188Q564 109 588.50 82Q613 55 654 55Q695 55 719 82Q743 109 743 188Q743 267 719 294Z"  horiz-adv-x="868" vert-adv-y="1000"  />

      
      <glyph glyph-name="uni26" unicode="&#x26;" d="M495 133L606 0L512 0L451 74Q372-8 263-8Q209-8 166.50 11Q124 30 101 60.50Q78 91 66 122.50Q54 154 54 184Q54 242 81.50 291.50Q109 341 189 385Q123 467 123 523Q123 585 167.50 629.50Q212 674 274 674Q338 674 382 631.50Q426 589 426 527Q426 474 397 437.50Q368 401 303 363L448 190Q476 239 489 290L554 290Q538 204 495 133M276 602Q242 602 217.50 578.50Q193 555 193 522Q193 487 256 418Q320 452 339.50 474.50Q359 497 359 526Q359 559 335 580.50Q311 602 276 602M266 62Q350 62 408 125L234 334Q196 314 171.50 292.50Q147 271 138 250Q129 229 127 217Q125 205 125 186Q125 170 131 151.50Q137 133 151.50 111.50Q166 90 195.50 76Q225 62 266 62Z"  horiz-adv-x="640" vert-adv-y="1000"  />

      
      <glyph glyph-name="uni27" unicode="&#x27;" d="M99 475L81 676L164 676L147 475L99 475Z"  horiz-adv-x="249" vert-adv-y="1000"  />

      
      <glyph glyph-name="uni28" unicode="&#x28;" d="M204 724L280 724Q266 701 251 669Q236 637 214.50 581Q193 525 179 452Q165 379 165 305Q165 232 179 158.50Q193 85 214.50 29.50Q236-26 251.50-58.50Q267-91 280-113L204-113Q93 86 93 305Q93 525 204 724Z"  horiz-adv-x="345" vert-adv-y="1000"  />

      
      <glyph glyph-name="uni29" unicode="&#x29;" d="M142 724Q253 525 253 306Q253 86 142-113L65-113Q79-90 94-58.50Q109-27 131 29.50Q153 86 167 159Q181 232 181 306Q181 401 155 499.50Q129 598 107 644.50Q85 691 65 724L142 724Z"  horiz-adv-x="345" vert-adv-y="1000"  />

      
      <glyph glyph-name="uni2a" unicode="&#x2a;" d="M325 620L239 581L325 543L298 495L223 550L231 460L177 460L187 550L111 495L84 543L171 581L84 620L111 666L187 612L177 703L231 703L223 612L298 666L325 620Z"  horiz-adv-x="411" vert-adv-y="1000"  />

      
      <glyph glyph-name="uni2b" unicode="&#x2b;" d="M452 329L452 269L305 269L305 122L245 122L245 269L97 269L97 329L245 329L245 477L305 477L305 329L452 329Z"  horiz-adv-x="551" vert-adv-y="1000"  />

      
      <glyph glyph-name="uni2c" unicode="&#x2c;" d="M148 84L230 84L146-112L74-112L148 84Z"  horiz-adv-x="313" vert-adv-y="1000"  />

      
      <glyph glyph-name="uni2d" unicode="&#x2d;" d="M384 333L384 263L79 263L79 333L384 333Z"  horiz-adv-x="464" vert-adv-y="1000"  />

      
      <glyph glyph-name="uni2e" unicode="&#x2e;" d="M127 0L127 80L207 80L207 0L127 0Z"  horiz-adv-x="328" vert-adv-y="1000"  />

      
      <glyph glyph-name="uni2f" unicode="&#x2f;" d="M353 756L419 756L51-98L-14-98L353 756Z"  horiz-adv-x="404" vert-adv-y="1000"  />

      
      <glyph glyph-name="uni30" unicode="&#x30;" d="M65 331Q65 331 65 502Q65 673 328 673Q591 673 591 331Q591-11 328-11Q65-11 65 331M274 60Q274 60 286 57.50Q298 55 328 55Q358 55 382 60Q406 65 433 82Q460 99 478 128Q496 157 507.50 208.50Q519 260 519 331Q519 418 502.50 476.50Q486 535 456 561.50Q426 588 396.50 597.50Q367 607 328 607Q289 607 259.50 597.50Q230 588 200 561.50Q170 535 153.50 476.50Q137 418 137 331Q137 260 148.50 208.50Q160 157 178 128Q196 99 223 82Q250 65 274 60Z"  horiz-adv-x="657" vert-adv-y="1000"  />

      
      <glyph glyph-name="uni31" unicode="&#x31;" d="M226 667L308 667L308 0L236 0L236 592L103 504L103 589L226 667Z"  horiz-adv-x="451" vert-adv-y="1000"  />

      
      <glyph glyph-name="uni32" unicode="&#x32;" d="M196 72L498 72L498 0L77 0L77 63Q127 100 179 145.50Q231 191 288 250.50Q345 310 380.50 373.50Q416 437 416 488Q416 604 259 604Q166 604 84 546L84 625Q168 676 265 676Q379 676 433.50 621Q488 566 488 488Q488 434 460.50 374.50Q433 315 386.50 259Q340 203 294 158.50Q248 114 196 72Z"  horiz-adv-x="581" vert-adv-y="1000"  />

      
      <glyph glyph-name="uni33" unicode="&#x33;" d="M385 361Q390 359 398 355Q406 351 426.50 336Q447 321 463 303Q479 285 492 254.50Q505 224 505 190Q505 152 491.50 118Q478 84 450.50 55Q423 26 373.50 9Q324-8 259-8Q163-8 81 34L81 108Q159 64 250 64Q339 64 386 97Q433 130 433 192Q433 254 385 287Q337 320 246 320L173 320L173 389L249 389Q322 389 360.50 416.50Q399 444 399 496Q399 548 358.50 576Q318 604 241 604Q167 604 97 569L97 642Q169 676 249 676Q363 676 417 623Q471 570 471 496Q471 468 462 444Q453 420 440.50 405Q428 390 415.50 379.50Q403 369 394 365L385 361Z"  horiz-adv-x="583" vert-adv-y="1000"  />

      
      <glyph glyph-name="uni34" unicode="&#x34;" d="M434 267L529 267L529 200L434 200L434 0L362 0L362 200L38 200L38 277L353 667L434 667L434 267M118 267L362 267L362 564L118 267Z"  horiz-adv-x="591" vert-adv-y="1000"  />

      
      <glyph glyph-name="uni35" unicode="&#x35;" d="M121 667L464 667L464 596L183 596L164 398Q223 416 294 416Q335 416 369 407Q403 398 435.50 376Q468 354 487 310Q506 266 506 204Q506 142 487 98Q468 54 435.50 32Q403 10 369 1Q335-8 294-8Q179-8 103 33L103 108Q176 62 289 62Q328 62 356.50 71.50Q385 81 400 94Q415 107 423 128Q431 149 433 165.50Q435 182 435 204Q435 249 423 278.50Q411 308 388 321.50Q365 335 342.50 339.50Q320 344 289 344Q242 344 202.50 336Q163 328 148 320L132 313L87 359L121 667Z"  horiz-adv-x="587" vert-adv-y="1000"  />

      
      <glyph glyph-name="uni36" unicode="&#x36;" d="M292 427Q397 427 458 370.50Q519 314 519 217Q519 176 506.50 137.50Q494 99 468.50 65.50Q443 32 397.50 12Q352-8 292-8Q65-8 65 305Q65 374 77.50 431Q90 488 109.50 525.50Q129 563 156.50 591.50Q184 620 211 635.50Q238 651 269 660.50Q300 670 323 673Q346 676 369 676Q422 676 466 663L466 596Q416 608 377 608Q354 608 332 605Q310 602 276.50 589Q243 576 217 553.50Q191 531 169.50 487Q148 443 141 383Q206 427 292 427M292 60Q342 60 376 78.50Q410 97 424 126.50Q438 156 442.50 177Q447 198 447 218Q447 286 407 323Q367 360 292 360Q194 360 137 303Q138 234 150.50 185Q163 136 178.50 112.50Q194 89 219 76Q244 63 257.50 61.50Q271 60 292 60Z"  horiz-adv-x="583" vert-adv-y="1000"  />

      
      <glyph glyph-name="uni37" unicode="&#x37;" d="M70 667L525 667L525 600L236 0L156 0L447 595L70 595L70 667Z"  horiz-adv-x="574" vert-adv-y="1000"  />

      
      <glyph glyph-name="uni38" unicode="&#x38;" d="M411 361Q416 359 423.50 355.50Q431 352 450 338.50Q469 325 484 308Q499 291 511 261.50Q523 232 523 198Q523 160 510.50 125.50Q498 91 472 60Q446 29 399.50 10.50Q353-8 292-8Q175-8 118 54Q61 116 61 198Q61 232 73 261.50Q85 291 101.50 308.50Q118 326 135 338Q152 350 164 355L176 360Q172 362 166 365Q160 368 144.50 380Q129 392 117 407Q105 422 95.50 448Q86 474 86 503Q86 574 136.50 625Q187 676 292 676Q397 676 447.50 625.50Q498 575 498 503Q498 473 489 447Q480 421 467 406Q454 391 441.50 380Q429 369 420 365L411 361M158 503Q158 449 193.50 418.50Q229 388 292 388Q355 388 390.50 418.50Q426 449 426 503Q426 605 292 605Q158 605 158 503M219 71.50Q219 71.50 234.50 65.75Q250 60 292 60Q334 60 365 71.50Q396 83 412 99Q428 115 437.50 136Q447 157 449 171Q451 185 451 198Q451 258 410 290Q369 322 292 322Q215 322 174 290Q133 258 133 198Q133 185 135 171Q137 157 146.50 136Q156 115 172 99Q188 83 219 71.50Z"  horiz-adv-x="582" vert-adv-y="1000"  />

      
      <glyph glyph-name="uni39" unicode="&#x39;" d="M285 241Q180 241 119 297.50Q58 354 58 451Q58 492 70.50 530.50Q83 569 108.50 602.50Q134 636 179.50 656Q225 676 285 676Q512 676 512 362Q512 267 488.50 196Q465 125 432 87Q399 49 353.50 26.50Q308 4 275-2Q242-8 208-8Q157-8 111 4L111 72Q152 60 200 60Q223 60 245 63Q267 66 300.50 79Q334 92 359.50 114.50Q385 137 407 181Q429 225 435 285Q376 241 285 241M285 608Q235 608 201 589.50Q167 571 153 541.50Q139 512 134.50 491Q130 470 130 450Q130 382 170 345Q210 308 285 308Q386 308 440 365Q439 434 426.50 483Q414 532 398.50 555.50Q383 579 358 592Q333 605 319.50 606.50Q306 608 285 608Z"  horiz-adv-x="587" vert-adv-y="1000"  />

      
      <glyph glyph-name="uni3a" unicode="&#x3a;" d="M158 48L158 128L238 128L238 48L158 48M158 368L158 448L238 448L238 368L158 368Z"  horiz-adv-x="391" vert-adv-y="1000"  />

      
      <glyph glyph-name="uni3b" unicode="&#x3b;" d="M172 368L172 448L252 448L252 368L172 368M171 84L253 84L169-112L97-112L171 84Z"  horiz-adv-x="417" vert-adv-y="1000"  />

      
      <glyph glyph-name="uni3c" unicode="&#x3c;" d="M120 303L532 490L532 410L204 269L532 127L532 48L120 235L120 303Z"  horiz-adv-x="660" vert-adv-y="1000"  />

      
      <glyph glyph-name="uni3d" unicode="&#x3d;" d="M512 256L512 186L127 186L127 256L512 256M512 410L512 341L127 341L127 410L512 410Z"  horiz-adv-x="638" vert-adv-y="1000"  />

      
      <glyph glyph-name="uni3e" unicode="&#x3e;" d="M543 303L543 235L132 48L132 127L459 269L132 410L132 490L543 303Z"  horiz-adv-x="649" vert-adv-y="1000"  />

      
      <glyph glyph-name="uni3f" unicode="&#x3f;" d="M191 0L191 80L271 80L271 0L191 0M219 675Q249 675 278 668Q307 661 341 643.50Q375 626 396 586.50Q417 547 417 490Q417 450 401.50 420.50Q386 391 364 372.50Q342 354 320 335.50Q298 317 282.50 286Q267 255 267 212L267 168L195 168L195 217Q195 268 210.50 305.50Q226 343 248 364Q270 385 292 402Q314 419 329.50 440.50Q345 462 345 490Q345 603 214 603Q138 603 80 559L80 637Q135 675 219 675Z"  horiz-adv-x="485" vert-adv-y="1000"  />

      
      <glyph glyph-name="uni40" unicode="&#x40;" d="M508 291Q544 291 582 286Q583 293 583 307Q583 324 580 336Q577 348 568.50 360.50Q560 373 539 379.50Q518 386 486 386Q416 386 361 365L369 423Q429 443 486 443Q562 443 601.50 408.50Q641 374 641 307Q641 278 635.50 237.50Q630 197 627 170.50Q624 144 625 118Q626 92 640 79.50Q654 67 682 67Q726 67 764.50 122.50Q803 178 803 275Q803 346 776 403Q749 460 705.50 494Q662 528 612 546Q562 564 511 564Q359 564 240.50 451.50Q122 339 122 181Q122 106 147 49Q172-8 207-37.50Q242-67 286.50-85.50Q331-104 361.50-108.50Q392-113 417-113Q541-113 627-64L618-109Q534-149 409-149Q367-149 324-138Q281-127 237-101.50Q193-76 159.50-39.50Q126-3 104.50 54.50Q83 112 83 181Q83 300 148 398.50Q213 497 311 549.50Q409 602 511 602Q551 602 594.50 591.50Q638 581 682.50 556Q727 531 762 494.50Q797 458 819 402Q841 346 841 278Q841 170 796.50 101Q752 32 678 32Q611 32 585 81Q538 32 441 32Q371 32 331 62.50Q291 93 291 146Q291 170 299 192Q307 214 328 238Q349 262 395.50 276.50Q442 291 508 291M441 90Q465 90 484 94Q503 98 516 102.50Q529 107 539 118Q549 129 554 136Q559 143 563 158.50Q567 174 568.50 181Q570 188 571.50 206Q573 224 574 229Q547 233 508 233Q349 233 349 146Q349 90 441 90Z"  horiz-adv-x="913" vert-adv-y="1000"  />

      
      <glyph glyph-name="uni41" unicode="&#x41;" d="M359 667L624 0L547 0L467 208L179 208L99 0L21 0L287 667L359 667M206 277L440 277L323 582L206 277Z"  horiz-adv-x="647" vert-adv-y="1000"  />

      
      <glyph glyph-name="uni42" unicode="&#x42;" d="M459 355Q464 354 471 351Q478 348 497.50 335Q517 322 531.50 305Q546 288 558 257Q570 226 570 189Q570 0 328 0L87 0L87 667L308 667Q530 667 530 488Q530 461 522.50 437Q515 413 504.50 399Q494 385 484 374.50Q474 364 466 360L459 355M334 67Q410 67 454 93.50Q498 120 498 193Q498 224 487.50 246Q477 268 462 280.50Q447 293 423 299.50Q399 306 378.50 308Q358 310 331 310L159 310L159 67L334 67M458 483Q458 548 422.50 573Q387 598 315 598L159 598L159 378L324 378Q385 378 421.50 399Q458 420 458 483Z"  horiz-adv-x="621" vert-adv-y="1000"  />

      
      <glyph glyph-name="uni43" unicode="&#x43;" d="M192 542Q192 542 162.50 509Q133 476 133 334Q133 192 192 126Q251 60 378 60Q480 60 573 99L573 30Q476-8 370-8Q61-8 61 334Q61 676 370 676Q477 676 573 637L573 568Q478 608 378 608Q251 608 192 542Z"  horiz-adv-x="628" vert-adv-y="1000"  />

      
      <glyph glyph-name="uni44" unicode="&#x44;" d="M87 667L296 667Q609 667 609 334Q609 0 296 0L87 0L87 667M291 68Q419 68 478 132Q537 196 537 334Q537 472 478 536Q419 600 291 600L159 600L159 68L291 68Z"  horiz-adv-x="670" vert-adv-y="1000"  />

      
      <glyph glyph-name="uni45" unicode="&#x45;" d="M159 599L159 369L466 369L466 299L159 299L159 68L508 68L508 0L87 0L87 667L508 667L508 599L159 599Z"  horiz-adv-x="566" vert-adv-y="1000"  />

      
      <glyph glyph-name="uni46" unicode="&#x46;" d="M87 667L496 667L496 599L159 599L159 369L455 369L455 299L159 299L159 0L87 0L87 667Z"  horiz-adv-x="536" vert-adv-y="1000"  />

      
      <glyph glyph-name="uni47" unicode="&#x47;" d="M370 293L370 363L603 363L603 44Q495-8 370-8Q61-8 61 334Q61 676 370 676Q481 676 580 634L580 564Q483 607 378 607Q251 607 192 541Q133 475 133 334Q133 192 192 126.50Q251 61 378 61Q458 61 531 85L531 293L370 293Z"  horiz-adv-x="677" vert-adv-y="1000"  />

      
      <glyph glyph-name="uni48" unicode="&#x48;" d="M514 667L586 667L586 0L514 0L514 299L159 299L159 0L87 0L87 667L159 667L159 368L514 368L514 667Z"  horiz-adv-x="674" vert-adv-y="1000"  />

      
      <glyph glyph-name="uni49" unicode="&#x49;" d="M87 667L159 667L159 0L87 0L87 667Z"  horiz-adv-x="245" vert-adv-y="1000"  />

      
      <glyph glyph-name="uni4a" unicode="&#x4a;" d="M280 667L352 667L352 199Q352 138 335 95Q318 52 288.50 31Q259 10 228 1Q197-8 161-8Q89-8 29 27L29 102Q86 62 152 62Q220 62 250 95.50Q280 129 280 205L280 667Z"  horiz-adv-x="447" vert-adv-y="1000"  />

      
      <glyph glyph-name="uni4b" unicode="&#x4b;" d="M279 355L588 0L493 0L232 304L159 224L159 0L87 0L87 667L159 667L159 323L468 667L565 667L279 355Z"  horiz-adv-x="632" vert-adv-y="1000"  />

      
      <glyph glyph-name="uni4c" unicode="&#x4c;" d="M159 70L500 70L500 0L87 0L87 667L159 667L159 70Z"  horiz-adv-x="521" vert-adv-y="1000"  />

      
      <glyph glyph-name="uni4d" unicode="&#x4d;" d="M624 667L702 667L702 0L630 0L630 549L394 209L159 549L159 0L87 0L87 667L165 667L394 328L624 667Z"  horiz-adv-x="791" vert-adv-y="1000"  />

      
      <glyph glyph-name="uni4e" unicode="&#x4e;" d="M567 667L639 667L639 0L558 0L159 562L159 0L87 0L87 667L169 667L567 105L567 667Z"  horiz-adv-x="728" vert-adv-y="1000"  />

      
      <glyph glyph-name="uni4f" unicode="&#x4f;" d="M370 676Q680 676 680 334Q680-8 370-8Q61-8 61 334Q61 676 370 676M370 60Q494 60 551 126Q608 192 608 334Q608 476 551 542Q494 608 370 608Q247 608 190 542Q133 476 133 334Q133 192 190 126Q247 60 370 60Z"  horiz-adv-x="747" vert-adv-y="1000"  />

      
      <glyph glyph-name="uni50" unicode="&#x50;" d="M323 667Q435 667 494.50 614Q554 561 554 461Q554 361 494.50 308Q435 255 323 255L158 255L158 0L86 0L86 667L323 667M314 324Q367 324 402.50 335.50Q438 347 454 369Q470 391 476 412Q482 433 482 461Q482 489 476 510Q470 531 454 553Q438 575 402.50 586.50Q367 598 314 598L158 598L158 324L314 324Z"  horiz-adv-x="596" vert-adv-y="1000"  />

      
      <glyph glyph-name="uni51" unicode="&#x51;" d="M680 334Q680 16 410-7Q430-90 541-93L541-158Q486-158 445.50-143.50Q405-129 383.50-104Q362-79 351.50-56Q341-33 337-7Q61 11 61 334Q61 676 370 676Q680 676 680 334M370 60Q494 60 551 126Q608 192 608 334Q608 476 551 542Q494 608 370 608Q247 608 190 542Q133 476 133 334Q133 192 190 126Q247 60 370 60Z"  horiz-adv-x="747" vert-adv-y="1000"  />

      
      <glyph glyph-name="uni52" unicode="&#x52;" d="M405 280L588 0L503 0L329 269L159 269L159 0L87 0L87 667L332 667Q441 667 499.50 617.50Q558 568 558 473Q558 430 544.50 395Q531 360 513.50 340.50Q496 321 472 306.50Q448 292 433 287.50Q418 283 405 280M328 337Q378 337 411.50 348.50Q445 360 460 380.50Q475 401 480.50 421Q486 441 486 468Q486 495 480.50 515Q475 535 460 555.50Q445 576 411.50 587.50Q378 599 328 599L159 599L159 337L328 337Z"  horiz-adv-x="621" vert-adv-y="1000"  />

      
      <glyph glyph-name="uni53" unicode="&#x53;" d="M133 490Q133 456 160.50 433Q188 410 228.50 399Q269 388 317 371Q365 354 405.50 334Q446 314 473.50 272Q501 230 501 170Q501 87 438.50 39.50Q376-8 264-8Q155-8 67 39L67 117Q146 64 259 64Q429 64 429 170Q429 215 401.50 245.50Q374 276 333.50 290Q293 304 245 319.50Q197 335 156.50 351Q116 367 88.50 402.50Q61 438 61 490Q61 567 117 621.50Q173 676 291 676Q376 676 458 636L458 562Q384 604 298 604Q218 604 175.50 574.50Q133 545 133 490Z"  horiz-adv-x="562" vert-adv-y="1000"  />

      
      <glyph glyph-name="uni54" unicode="&#x54;" d="M12 667L555 667L555 597L320 597L320 0L248 0L248 597L12 597L12 667Z"  horiz-adv-x="568" vert-adv-y="1000"  />

      
      <glyph glyph-name="uni55" unicode="&#x55;" d="M557 667L629 667L629 274Q629 137 559 64.50Q489-8 358-8Q227-8 157 64.50Q87 137 87 274L87 667L159 667L159 270Q159 58 358 58Q557 58 557 270L557 667Z"  horiz-adv-x="721" vert-adv-y="1000"  />

      
      <glyph glyph-name="uni56" unicode="&#x56;" d="M518 667L595 667L339 0L268 0L12 667L89 667L304 103L518 667Z"  horiz-adv-x="611" vert-adv-y="1000"  />

      
      <glyph glyph-name="uni57" unicode="&#x57;" d="M862 667L938 667L723 0L650 0L475 544L300 0L226 0L12 667L88 667L263 109L439 667L511 667L686 109L862 667Z"  horiz-adv-x="951" vert-adv-y="1000"  />

      
      <glyph glyph-name="uni58" unicode="&#x58;" d="M337 337L573 0L487 0L293 275L100 0L12 0L249 338L18 667L104 667L293 399L481 667L569 667L337 337Z"  horiz-adv-x="589" vert-adv-y="1000"  />

      
      <glyph glyph-name="uni59" unicode="&#x59;" d="M494 667L581 667L333 306L333 0L261 0L261 306L12 667L99 667L297 376L494 667Z"  horiz-adv-x="598" vert-adv-y="1000"  />

      
      <glyph glyph-name="uni5a" unicode="&#x5a;" d="M539 667L539 606L156 72L539 72L539 0L64 0L64 63L445 595L74 595L74 667L539 667Z"  horiz-adv-x="609" vert-adv-y="1000"  />

      
      <glyph glyph-name="uni5b" unicode="&#x5b;" d="M191 628L191-48L300-48L300-116L119-116L119 696L300 696L300 628L191 628Z"  horiz-adv-x="383" vert-adv-y="1000"  />

      
      <glyph glyph-name="uni5c" unicode="&#x5c;" d="M29 756L396-98L331-98L-37 756L29 756Z"  horiz-adv-x="368" vert-adv-y="1000"  />

      
      <glyph glyph-name="uni5d" unicode="&#x5d;" d="M192 628L84 628L84 696L264 696L264-116L84-116L84-48L192-48L192 628Z"  horiz-adv-x="381" vert-adv-y="1000"  />

      
      <glyph glyph-name="uni5e" unicode="&#x5e;" d="M293 690L397 473L337 473L266 632L194 473L134 473L238 690L293 690Z"  horiz-adv-x="560" vert-adv-y="1000"  />

      
      <glyph glyph-name="uni5f" unicode="&#x5f;" d="M0-24L546-24L546-68L0-68L0-24Z"  horiz-adv-x="546" vert-adv-y="1000"  />

      
      <glyph glyph-name="uni60" unicode="&#x60;" d="M119 679L176 564L129 564L46 679L119 679Z"  horiz-adv-x="219" vert-adv-y="1000"  />

      
      <glyph glyph-name="uni61" unicode="&#x61;" d="M255 508Q360 508 415 455Q470 402 470 300L470 150Q470 102 448 68Q426 34 391 19Q356 4 325.50-2Q295-8 265-8Q242-8 218-5Q194-2 163.50 8.50Q133 19 110.50 35.50Q88 52 72 82.50Q56 113 56 153Q56 187 68.50 214Q81 241 99 258Q117 275 145 287Q173 299 194.50 304.50Q216 310 245.50 313Q275 316 287.50 316.50Q300 317 317 317L397 312Q397 379 360 407.50Q323 436 251 436Q170 436 105 412L105 482Q179 508 255 508M398 150L398 246Q365 252 309 252Q128 252 128 153Q128 59 265 59Q398 59 398 150Z"  horiz-adv-x="534" vert-adv-y="1000"  />

      
      <glyph glyph-name="uni62" unicode="&#x62;" d="M278 508Q312 508 342 502Q372 496 403 479Q434 462 456.50 435Q479 408 493 362Q507 316 507 256Q507 190 491.50 140.50Q476 91 453.50 63.50Q431 36 399.50 19Q368 2 341.50-3Q315-8 287-8Q233-8 193 5.50Q153 19 133 36.50Q113 54 100.50 78.50Q88 103 85.50 119Q83 135 83 150L83 690L155 690L155 488Q215 508 278 508M287 58Q315 58 337.50 64.50Q360 71 384 89.50Q408 108 421.50 150.50Q435 193 435 256Q435 353 398 397Q361 441 278 441Q216 441 155 416L155 146Q155 58 287 58Z"  horiz-adv-x="570" vert-adv-y="1000"  />

      
      <glyph glyph-name="uni63" unicode="&#x63;" d="M130 250Q130 150 170.50 105.50Q211 61 300 61Q375 61 440 89L440 19Q370-8 292-8Q257-8 226.50-2Q196 4 164 21.50Q132 39 109.50 66.50Q87 94 72.50 141Q58 188 58 250Q58 326 79 379.50Q100 433 136 459.50Q172 486 209.50 497Q247 508 292 508Q367 508 440 480L440 411Q372 439 300 439Q211 439 170.50 394Q130 349 130 250Z"  horiz-adv-x="472" vert-adv-y="1000"  />

      
      <glyph glyph-name="uni64" unicode="&#x64;" d="M63 256Q63 330 83 382Q103 434 138.50 460Q174 486 210.50 496.50Q247 507 291 507Q357 507 415 488L415 689L487 689L487 149Q487 129 481 108Q475 87 456.50 58Q438 29 393 10.50Q348-8 282-8Q254-8 227.50-3Q201 2 170 19Q139 36 116.50 63.50Q94 91 78.50 140.50Q63 190 63 256M135 256Q135 193 148.50 150.50Q162 108 186 89.50Q210 71 232 64.50Q254 58 282 58Q415 58 415 146L415 416Q354 441 291 441Q209 441 172 397Q135 353 135 256Z"  horiz-adv-x="562" vert-adv-y="1000"  />

      
      <glyph glyph-name="uni65" unicode="&#x65;" d="M282 508Q328 508 365.50 493.50Q403 479 425 459.50Q447 440 463.50 408.50Q480 377 487 355Q494 333 498 302Q502 271 502 263.50Q502 256 502 242L500 207L136 207Q143 132 182 98Q221 64 298 64Q407 64 469 101L469 27Q396-8 291-8Q247-8 210.50 2.50Q174 13 138.50 39Q103 65 83 117Q63 169 63 243Q63 245 63 248Q62 508 282 508M136 271L428 271Q428 288 424 309Q420 330 407.50 363Q395 396 362.50 418Q330 440 282 440Q208 440 174.50 401.50Q141 363 136 271Z"  horiz-adv-x="555" vert-adv-y="1000"  />

      
      <glyph glyph-name="uni66" unicode="&#x66;" d="M299 643Q275 643 262.50 641Q250 639 232.50 629Q215 619 206.50 593.50Q198 568 198 527L198 499L335 499L335 433L198 433L198 0L126 0L126 433L40 433L40 499L126 499L126 526Q126 578 139.50 615Q153 652 170 669.50Q187 687 213.50 697Q240 707 254 708Q268 709 287 709Q314 709 335 703L335 639Q315 643 299 643Z"  horiz-adv-x="330" vert-adv-y="1000"  />

      
      <glyph glyph-name="uni67" unicode="&#x67;" d="M272 508Q336 508 379.50 490Q423 472 440.50 444Q458 416 464 395.50Q470 375 470 355L470-21Q470-54 460.50-82Q451-110 429-136.50Q407-163 362-178Q317-193 253-193Q183-193 111-175L111-107Q175-125 245-125Q293-125 325.50-116.50Q358-108 372.50-92Q387-76 392.50-60.50Q398-45 398-23L398 27Q342 9 281 9Q248 9 219 14.50Q190 20 160 36.50Q130 53 108.50 79.50Q87 106 73.50 150Q60 194 60 252Q60 330 81 384.50Q102 439 137.50 464Q173 489 205 498.50Q237 508 272 508M398 99L398 358Q398 442 272 442Q245 442 224 435.50Q203 429 180 411Q157 393 144.50 352.50Q132 312 132 252Q132 196 144 159.50Q156 123 179 105.50Q202 88 225.50 82Q249 76 281 76Q341 76 398 99Z"  horiz-adv-x="538" vert-adv-y="1000"  />

      
      <glyph glyph-name="uni68" unicode="&#x68;" d="M317 508Q409 508 459 452.50Q509 397 509 296L509 0L437 0L437 296Q437 436 309 436Q239 436 166 406L166 0L94 0L94 689L166 689L166 476Q242 508 317 508Z"  horiz-adv-x="577" vert-adv-y="1000"  />

      
      <glyph glyph-name="uni69" unicode="&#x69;" d="M170 0L170 499L98 499L98 0L170 0M174 667L174 588L94 588L94 667L174 667Z"  horiz-adv-x="264" vert-adv-y="1000"  />

      
      <glyph glyph-name="uni6a" unicode="&#x6a;" d="M101 667L181 667L181 588L101 588L101 667M105 499L177 499L177-29Q177-193 3-193L3-126Q65-125 85-101.50Q105-78 105-25L105 499Z"  horiz-adv-x="251" vert-adv-y="1000"  />

      
      <glyph glyph-name="uni6b" unicode="&#x6b;" d="M273 270L513 0L417 0L226 219L164 152L164 0L92 0L92 689L164 689L164 254L388 499L486 499L273 270Z"  horiz-adv-x="549" vert-adv-y="1000"  />

      
      <glyph glyph-name="uni6c" unicode="&#x6c;" d="M173 0L101 0L101 689L173 689L173 0Z"  horiz-adv-x="270" vert-adv-y="1000"  />

      
      <glyph glyph-name="uni6d" unicode="&#x6d;" d="M611 508Q702 508 752 460Q802 412 802 325L802 0L730 0L730 325Q730 346 726 362.50Q722 379 710 397.50Q698 416 671.50 426Q645 436 606 436Q543 436 468 411Q484 375 484 325L484 0L412 0L412 325Q412 347 408 363.50Q404 380 392 398Q380 416 352.50 426Q325 436 285 436Q224 436 166 418L166 0L94 0L94 460Q190 508 294 508Q376 508 426 467Q522 508 611 508Z"  horiz-adv-x="891" vert-adv-y="1000"  />

      
      <glyph glyph-name="uni6e" unicode="&#x6e;" d="M293 508Q387 508 439 460Q491 412 491 325L491 0L419 0L419 325Q419 346 414.50 362.50Q410 379 397.50 397.50Q385 416 356.50 426Q328 436 285 436Q222 436 154 416L154 0L82 0L82 459Q180 508 293 508Z"  horiz-adv-x="581" vert-adv-y="1000"  />

      
      <glyph glyph-name="uni6f" unicode="&#x6f;" d="M200.50 497Q200.50 497 219.25 502.50Q238 508 283 508Q328 508 366 497Q404 486 440 459.50Q476 433 497 379.50Q518 326 518 250Q518 174 497 120.50Q476 67 440 40.50Q404 14 366 3Q328-8 283-8Q238-8 200.50 3Q163 14 127 40.50Q91 67 70 120.50Q49 174 49 250Q49 326 70 379.50Q91 433 127 459.50Q163 486 200.50 497M159.50 104Q159.50 104 178.75 81Q198 58 283 58Q368 58 407 103.50Q446 149 446 250Q446 351 407 396.50Q368 442 283 442Q198 442 159.50 396Q121 350 121 250Q121 150 159.50 104Z"  horiz-adv-x="564" vert-adv-y="1000"  />

      
      <glyph glyph-name="uni70" unicode="&#x70;" d="M287 508Q315 508 341.50 503Q368 498 399 481Q430 464 452.50 436Q475 408 490.50 358.50Q506 309 506 243Q506 169 486 117Q466 65 430.50 39Q395 13 358.50 2.50Q322-8 278-8Q217-8 154 11L154-185L82-185L82 350Q82 370 88 391Q94 412 112.50 441.50Q131 471 176 489.50Q221 508 287 508M278 59Q360 59 397 102.50Q434 146 434 244Q434 307 420.50 349Q407 391 383 410Q359 429 337 435.50Q315 442 287 442Q154 442 154 353L154 84Q211 59 278 59Z"  horiz-adv-x="566" vert-adv-y="1000"  />

      
      <glyph glyph-name="uni71" unicode="&#x71;" d="M56 243Q56 309 71.50 358.50Q87 408 109.50 436Q132 464 163 481Q194 498 220.50 503Q247 508 275 508Q329 508 369 494.50Q409 481 429 463.50Q449 446 461.50 421.50Q474 397 476.50 381Q479 365 479 350L479-185L407-185L407 11Q350-8 284-8Q240-8 203.50 2.50Q167 13 131.50 39Q96 65 76 117Q56 169 56 243M128 244Q128 146 165 102.50Q202 59 284 59Q350 59 407 84L407 353Q407 442 275 442Q247 442 225 435.50Q203 429 179 410Q155 391 141.50 349Q128 307 128 244Z"  horiz-adv-x="562" vert-adv-y="1000"  />

      
      <glyph glyph-name="uni72" unicode="&#x72;" d="M323 438Q241 436 153 412L153 0L81 0L81 459Q194 507 323 507L323 438Z"  horiz-adv-x="343" vert-adv-y="1000"  />

      
      <glyph glyph-name="uni73" unicode="&#x73;" d="M121 363Q121 337 148.50 321Q176 305 215.50 294.50Q255 284 294.50 269.50Q334 255 361.50 220Q389 185 389 131Q389 66 340.50 29Q292-8 206-8Q123-8 55 30L55 106Q127 62 203 62Q317 62 317 131Q317 168 289.50 189Q262 210 222.50 220.50Q183 231 143.50 243.50Q104 256 76.50 285.50Q49 315 49 363Q49 423 92.50 465.50Q136 508 226 508Q290 508 354 477L354 405Q297 439 234 439Q121 439 121 363Z"  horiz-adv-x="426" vert-adv-y="1000"  />

      
      <glyph glyph-name="uni74" unicode="&#x74;" d="M183 433L183 129Q183 91 199 75.50Q215 60 255 60Q286 60 312 72L312 4Q279-8 246-8Q226-8 207-3.50Q188 1 164 14Q140 27 125.50 57.50Q111 88 111 133L111 433L24 433L24 499L111 499L111 640L183 640L183 499L312 499L312 433L183 433Z"  horiz-adv-x="345" vert-adv-y="1000"  />

      
      <glyph glyph-name="uni75" unicode="&#x75;" d="M428 499L500 499L500 210Q500 106 445.50 49Q391-8 291-8Q191-8 136.50 49Q82 106 82 210L82 499L154 499L154 206Q154 130 187 94.50Q220 59 291 59Q361 59 394.50 94.50Q428 130 428 206L428 499Z"  horiz-adv-x="587" vert-adv-y="1000"  />

      
      <glyph glyph-name="uni76" unicode="&#x76;" d="M411 499L488 499L296 0L223 0L32 499L109 499L260 90L411 499Z"  horiz-adv-x="519" vert-adv-y="1000"  />

      
      <glyph glyph-name="uni77" unicode="&#x77;" d="M668 499L744 499L578 0L505 0L391 373L277 0L204 0L38 499L114 499L241 113L356 499L425 499L541 113L668 499Z"  horiz-adv-x="783" vert-adv-y="1000"  />

      
      <glyph glyph-name="uni78" unicode="&#x78;" d="M293 251L470 0L384 0L250 190L116 0L28 0L206 253L33 499L118 499L249 314L380 499L468 499L294 253L293 251Z"  horiz-adv-x="504" vert-adv-y="1000"  />

      
      <glyph glyph-name="uni79" unicode="&#x79;" d="M394 499L471 499L267-49Q214-193 110-193Q86-193 63-184L63-118Q83-127 106-127Q125-127 143.50-113Q162-99 174-79.50Q186-60 196-40Q206-20 210-6L215 8L31 499L108 499L250 104L394 499Z"  horiz-adv-x="502" vert-adv-y="1000"  />

      
      <glyph glyph-name="uni7a" unicode="&#x7a;" d="M410 499L410 436L136 69L410 69L410 0L45 0L45 65L317 430L52 430L52 499L410 499Z"  horiz-adv-x="464" vert-adv-y="1000"  />

      
      <glyph glyph-name="uni7b" unicode="&#x7b;" d="M226 35Q226-8 245-24.50Q264-41 304-43L304-110Q231-110 192.50-71.50Q154-33 154 40L154 196Q154 250 91 269L91 318Q154 334 154 390L154 546Q154 619 192.50 658Q231 697 304 697L304 629Q264 627 245 611Q226 595 226 551L226 390Q226 332 168 293Q226 254 226 196L226 35Z"  horiz-adv-x="373" vert-adv-y="1000"  />

      
      <glyph glyph-name="uni7c" unicode="&#x7c;" d="M257-99L185-99L185 665L257 665L257-99Z"  horiz-adv-x="443" vert-adv-y="1000"  />

      
      <glyph glyph-name="uni7d" unicode="&#x7d;" d="M154 35L154 196Q154 253 213 293Q154 333 154 390L154 551Q154 595 135.50 611Q117 627 76 629L76 697Q149 697 187.50 658Q226 619 226 546L226 390Q226 334 289 318L289 269Q226 250 226 196L226 40Q226-33 187.50-71.50Q149-110 76-110L76-43Q116-41 135-24.50Q154-8 154 35Z"  horiz-adv-x="368" vert-adv-y="1000"  />

      
      <glyph glyph-name="uni7e" unicode="&#x7e;" d="M402 312L402 252Q374 217 342 213.50Q310 210 280 226Q250 242 220 257.50Q190 273 158 269.50Q126 266 98 231L98 292Q126 327 158 330.50Q190 334 220 318Q250 302 280 286Q310 270 342 273.50Q374 277 402 312Z"  horiz-adv-x="500" vert-adv-y="1000"  />

      
      <glyph glyph-name="unia1" unicode="&#xa1;" d="M228 499L228 420L148 420L148 499L228 499M224-168L152-168L159 331L217 331L224-168Z"  horiz-adv-x="362" vert-adv-y="1000"  />

      
      <glyph glyph-name="unia2" unicode="&#xa2;" d="M438 495Q377 520 308 522L308 145Q378 147 438 173L438 103Q377 79 308 76L308 0L258 0L258 77Q57 97 57 334Q57 465 114 523.50Q171 582 258 590L258 667L308 667L308 591Q372 590 438 564L438 495M160 465.50Q160 465.50 144.50 443.25Q129 421 129 334Q129 247 160 202Q191 157 258 148L258 520Q191 510 160 465.50Z"  horiz-adv-x="477" vert-adv-y="1000"  />

      
      <glyph glyph-name="unia3" unicode="&#xa3;" d="M355 607Q209 607 209 493L209 347L410 347L410 281L209 281L209 78Q234 75 280 65.50Q326 56 355.50 51Q385 46 425.50 47.50Q466 49 500 62L500-11Q451-30 388-25.50Q325-21 275.50-7Q226 7 163.50 8.50Q101 10 51-15L51 58Q90 77 137 80L137 281L51 281L51 347L137 347L137 490Q137 567 188.50 621.50Q240 676 349 676Q428 676 500 637L500 564Q432 607 355 607Z"  horiz-adv-x="555" vert-adv-y="1000"  />

      
      <glyph glyph-name="unia5" unicode="&#xa5;" d="M588 667L371 352L496 352L496 292L339 292L339 198L496 198L496 138L339 138L339 0L267 0L267 138L110 138L110 198L267 198L267 292L110 292L110 352L235 352L18 667L106 667L303 380L500 667L588 667Z"  horiz-adv-x="602" vert-adv-y="1000"  />

      
      <glyph glyph-name="unia7" unicode="&#xa7;" d="M492 307Q492 270 467 243.50Q442 217 406 205Q441 176 441 128Q441 64 386.50 28Q332-8 235-8Q136-8 64 28L64 102Q130 61 230 61Q369 61 369 128Q369 158 345.50 178Q322 198 239 217Q149 238 103.50 266.50Q58 295 58 355Q58 435 149 464Q109 489 109 534Q109 592 158 634Q207 676 309 676Q385 676 454 646L454 575Q390 609 315 609Q181 609 181 534Q181 522 185 514.50Q189 507 218.50 493Q248 479 306 466Q347 457 374.50 447Q402 437 431.50 419.50Q461 402 476.50 373.50Q492 345 492 307M363 251Q420 268 420 307Q420 337 396 357Q372 377 290 396Q242 407 204 420Q130 406 130 355Q130 343 134 335.50Q138 328 168 314Q198 300 256 287Q322 273 363 251Z"  horiz-adv-x="543" vert-adv-y="1000"  />

      
      <glyph glyph-name="unia8" unicode="&#xa8;" d="M79 564L79 643L158 643L158 564L79 564M227 564L227 643L306 643L306 564L227 564Z"  horiz-adv-x="385" vert-adv-y="1000"  />

      
      <glyph glyph-name="unia9" unicode="&#xa9;" d="M390-8Q249-8 148.50 92Q48 192 48 333Q48 475 148.50 575Q249 675 390 675Q532 675 632 575Q732 475 732 333Q732 192 632 92Q532-8 390-8M390 640Q264 640 174 550Q84 460 84 333Q84 207 174 117Q264 27 390 27Q517 27 606.50 117Q696 207 696 333Q696 460 606.50 550Q517 640 390 640M295.50 454.50Q295.50 454.50 278.25 435.25Q261 416 261 333Q261 250 295.50 211.50Q330 173 404 173Q463 173 518 196L518 156Q462 134 399 134Q219 134 219 333Q219 533 399 533Q462 533 518 511L518 471Q465 493 404 493Q330 493 295.50 454.50Z"  horiz-adv-x="778" vert-adv-y="1000"  />

      
      <glyph glyph-name="uniaa" unicode="&#xaa;" d="M186 675Q306 675 306 560L306 476Q306 441 283.50 420Q261 399 238.50 394Q216 389 192 389Q168 389 145 394Q122 399 99 420.50Q76 442 76 478Q76 569 221 569L266 566Q266 636 184 636Q139 636 104 622L104 661Q139 675 186 675M266 477L266 530Q248 533 217 533Q116 533 116 479Q116 426 192 426Q266 426 266 477Z"  horiz-adv-x="394" vert-adv-y="1000"  />

      
      <glyph glyph-name="uniab" unicode="&#xab;" d="M297 445L119 255L297 64L200 64L31 255L200 445L297 445M487 445L309 255L487 64L390 64L221 255L390 445L487 445Z"  horiz-adv-x="553" vert-adv-y="1000"  />

      
      <glyph glyph-name="uniac" unicode="&#xac;" d="M97 324L525 324L525 158L459 158L459 258L97 258L97 324Z"  horiz-adv-x="622" vert-adv-y="1000"  />

      
      <glyph glyph-name="uniae" unicode="&#xae;" d="M452 302L559 138L509 138L408 296L308 296L308 138L266 138L266 528L409 528Q473 528 507.50 499.50Q542 471 542 415Q542 384 531 360.50Q520 337 503 325.50Q486 314 474.50 309.50Q463 305 452 302M407 336Q462 336 480.50 357Q499 378 499 412Q499 446 480.50 467Q462 488 407 488L308 488L308 336L407 336M390-8Q249-8 148.50 92Q48 192 48 333Q48 475 148.50 575Q249 675 390 675Q532 675 632 575Q732 475 732 333Q732 192 632 92Q532-8 390-8M390 640Q264 640 174 550Q84 460 84 333Q84 207 174 117Q264 27 390 27Q517 27 606.50 117Q696 207 696 333Q696 460 606.50 550Q517 640 390 640Z"  horiz-adv-x="778" vert-adv-y="1000"  />

      
      <glyph glyph-name="uniaf" unicode="&#xaf;" d="M86 576L86 629L320 629L320 576L86 576Z"  horiz-adv-x="403" vert-adv-y="1000"  />

      
      <glyph glyph-name="unib0" unicode="&#xb0;" d="M191 669Q244 669 272 640.50Q300 612 300 558Q300 447 191 447Q82 447 82 558Q82 669 191 669M191 483Q229 483 246.50 500.50Q264 518 264 558Q264 597 246.50 615Q229 633 191 633Q152 633 135 615Q118 597 118 558Q118 518 135 500.50Q152 483 191 483Z"  horiz-adv-x="387" vert-adv-y="1000"  />

      
      <glyph glyph-name="unib1" unicode="&#xb1;" d="M321 352L468 352L468 292L321 292L321 144L261 144L261 292L113 292L113 352L261 352L261 499L321 499L321 352M113 33L113 93L468 93L468 33L113 33Z"  horiz-adv-x="585" vert-adv-y="1000"  />

      
      <glyph glyph-name="unib2" unicode="&#xb2;" d="M117 502L279 502L279 463L53 463L53 497Q118 545 176.50 609.50Q235 674 235 726Q235 787 151 787Q99 787 57 757L57 799Q101 826 154 826Q215 826 244.50 796.50Q274 767 274 726Q274 630 117 502Z"  horiz-adv-x="328" vert-adv-y="1000"  />

      
      <glyph glyph-name="unib3" unicode="&#xb3;" d="M217 657Q220 656 224 654Q228 652 239 644Q250 636 258.50 626Q267 616 274 599.50Q281 583 281 565Q281 521 248.50 490Q216 459 149 459Q99 459 53 481L53 521Q97 497 144 497Q243 497 243 566Q243 635 142 635L103 635L103 672L144 672Q224 672 224 730Q224 787 139 787Q96 787 62 769L62 808Q102 826 144 826Q205 826 234 797.50Q263 769 263 730Q263 706 251.50 688Q240 670 228 664L217 657Z"  horiz-adv-x="323" vert-adv-y="1000"  />

      
      <glyph glyph-name="unib4" unicode="&#xb4;" d="M117 679L191 679L108 564L60 564L117 679Z"  horiz-adv-x="236" vert-adv-y="1000"  />

      
      <glyph glyph-name="unib5" unicode="&#xb5;" d="M435 499L507 499L507 41Q413-8 297-8Q263-8 231.50 2Q200 12 186 22L171 32L171-210L99-210L99 499L171 499L171 175Q171 153 175.50 136.50Q180 120 192.50 102Q205 84 233 74Q261 64 304 64Q370 64 435 83L435 499Z"  horiz-adv-x="609" vert-adv-y="1000"  />

      
      <glyph glyph-name="unib6" unicode="&#xb6;" d="M268 667L367 667L367 0L301 0L301 256L268 256Q156 256 97 309Q38 362 38 462Q38 561 97 614Q156 667 268 667Z"  horiz-adv-x="445" vert-adv-y="1000"  />

      
      <glyph glyph-name="unib7" unicode="&#xb7;" d="M195 312L195 232L116 232L116 312L195 312Z"  horiz-adv-x="311" vert-adv-y="1000"  />

      
      <glyph glyph-name="unib8" unicode="&#xb8;" d="M195-5L132-120L56-120L138-5L195-5Z"  horiz-adv-x="253" vert-adv-y="1000"  />

      
      <glyph glyph-name="unib9" unicode="&#xb9;" d="M119 822L163 822L163 463L125 463L125 781L53 734L53 780L119 822Z"  horiz-adv-x="240" vert-adv-y="1000"  />

      
      <glyph glyph-name="uniba" unicode="&#xba;" d="M206 676Q336 676 336 532Q336 389 206 389Q151 389 113.50 420.50Q76 452 76 532Q76 574 87.50 604Q99 634 119 649Q139 664 160 670Q181 676 206 676M206 426Q254 426 275 451Q296 476 296 532Q296 588 275 613.50Q254 639 206 639Q159 639 137.50 613.50Q116 588 116 532Q116 476 137.50 451Q159 426 206 426Z"  horiz-adv-x="417" vert-adv-y="1000"  />

      
      <glyph glyph-name="unibb" unicode="&#xbb;" d="M257 445L353 445L523 255L353 64L257 64L434 255L257 445M67 445L163 445L333 255L163 64L67 64L244 255L67 445Z"  horiz-adv-x="553" vert-adv-y="1000"  />

      
      <glyph glyph-name="unibc" unicode="&#xbc;" d="M598 144L649 144L649 108L598 108L598 0L559 0L559 108L385 108L385 149L554 358L598 358L598 144M428 144L559 144L559 303L428 144M117 674L162 674L162 316L123 316L123 634L52 586L52 632L117 674M509 685L556 685L119-22L72-22L509 685Z"  horiz-adv-x="700" vert-adv-y="1000"  />

      
      <glyph glyph-name="unibd" unicode="&#xbd;" d="M117 674L162 674L162 316L123 316L123 634L52 586L52 632L117 674M488 39L650 39L650 0L425 0L425 34Q490 82 548 146Q606 210 606 262Q606 324 522 324Q471 324 428 293L428 336Q476 363 525 363Q587 363 616 333.50Q645 304 645 262Q645 167 488 39M509 685L556 685L119-22L72-22L509 685Z"  horiz-adv-x="713" vert-adv-y="1000"  />

      
      <glyph glyph-name="unibe" unicode="&#xbe;" d="M230 509Q233 508 237 506Q241 504 252 496Q263 488 271.50 478.50Q280 469 287 452.50Q294 436 294 418Q294 374 262 342.50Q230 311 162 311Q114 311 66 334L66 373Q112 350 158 350Q256 350 256 419Q256 452 230 470Q204 488 155 488L116 488L116 524L157 524Q237 524 237 582Q237 640 152 640Q111 640 75 621L75 661Q115 679 157 679Q218 679 247 650.50Q276 622 276 582Q276 558 264.50 540Q253 522 242 516L230 509M706 144L757 144L757 108L706 108L706 0L667 0L667 108L493 108L493 149L662 358L706 358L706 144M536 144L667 144L667 303L536 144M617 685L664 685L227-22L180-22L617 685Z"  horiz-adv-x="808" vert-adv-y="1000"  />

      
      <glyph glyph-name="unibf" unicode="&#xbf;" d="M298 499L298 420L218 420L218 499L298 499M270-176Q247-176 224.50-172.50Q202-169 173-157Q144-145 123-125.50Q102-106 87-71Q72-36 72 10Q72 50 87.50 79Q103 108 125 126.50Q147 145 169 163.50Q191 182 206.50 213Q222 244 222 287L222 332L294 332L294 282Q294 231 278.50 193.50Q263 156 241 135.50Q219 115 197 97.50Q175 80 159.50 58.50Q144 37 144 10Q144-104 276-104Q345-104 410-60L410-138Q354-176 270-176Z"  horiz-adv-x="483" vert-adv-y="1000"  />

      
      <glyph glyph-name="unic0" unicode="&#xc0;" d="M359 667L624 0L547 0L467 208L179 208L99 0L21 0L287 667L359 667M206 277L440 277L323 582L206 277M288 839L345 724L297 724L214 839L288 839Z"  horiz-adv-x="647" vert-adv-y="1000"  />

      
      <glyph glyph-name="unic1" unicode="&#xc1;" d="M21 0L287 667L359 667L624 0L547 0L467 208L179 208L99 0L21 0M206 277L440 277L323 582L206 277M357 839L431 839L348 724L300 724L357 839Z"  horiz-adv-x="647" vert-adv-y="1000"  />

      
      <glyph glyph-name="unic2" unicode="&#xc2;" d="M359 667L624 0L547 0L467 208L179 208L99 0L21 0L287 667L359 667M206 277L440 277L323 582L206 277M344 845L424 724L368 724L323 795L278 724L222 724L302 845L344 845Z"  horiz-adv-x="647" vert-adv-y="1000"  />

      
      <glyph glyph-name="unic3" unicode="&#xc3;" d="M463 745Q437 713 407 709.50Q377 706 350 720.50Q323 735 295.50 749.50Q268 764 238 760.50Q208 757 182 725L182 782Q208 814 238 817Q268 820 295 805.50Q322 791 349.50 776.50Q377 762 407 765Q437 768 463 800L463 745M359 667L624 0L547 0L467 208L179 208L99 0L21 0L287 667L359 667M206 277L440 277L323 582L206 277Z"  horiz-adv-x="647" vert-adv-y="1000"  />

      
      <glyph glyph-name="unic4" unicode="&#xc4;" d="M209 724L209 804L289 804L289 724L209 724M357 724L357 804L437 804L437 724L357 724M359 667L624 0L547 0L467 208L179 208L99 0L21 0L287 667L359 667M206 277L440 277L323 582L206 277Z"  horiz-adv-x="647" vert-adv-y="1000"  />

      
      <glyph glyph-name="unic5" unicode="&#xc5;" d="M359 667L624 0L547 0L467 208L179 208L99 0L21 0L287 667L359 667M206 277L440 277L323 582L206 277M263 838Q263 838 273.50 848.50Q284 859 323 859Q362 859 383 838Q404 817 404 777Q404 737 383 716Q362 695 323 695Q284 695 263 716Q242 737 242 777Q242 817 263 838M323 729Q347 729 357.50 740Q368 751 368 777Q368 803 357.50 814.50Q347 826 323 826Q298 826 288 814.50Q278 803 278 777Q278 751 288 740Q298 729 323 729Z"  horiz-adv-x="647" vert-adv-y="1000"  />

      
      <glyph glyph-name="unic6" unicode="&#xc6;" d="M550 598L550 368L846 368L846 298L550 298L550 69L887 69L887 0L478 0L478 209L231 209L108 0L25 0L421 667L887 667L887 598L550 598M478 281L478 595L456 595L273 281L478 281Z"  horiz-adv-x="947" vert-adv-y="1000"  />

      
      <glyph glyph-name="unic7" unicode="&#xc7;" d="M378 609Q251 609 192 543.50Q133 478 133 336Q133 194 192 128Q251 62 378 62Q480 62 573 101L573 32Q489-1 399-6L338-119L262-119L342-6Q61 11 61 335Q61 677 370 677Q476 677 573 639L573 570Q482 609 378 609Z"  horiz-adv-x="628" vert-adv-y="1000"  />

      
      <glyph glyph-name="unic8" unicode="&#xc8;" d="M291 839L348 724L300 724L217 839L291 839M159 599L159 369L466 369L466 299L159 299L159 68L508 68L508 0L87 0L87 667L508 667L508 599L159 599Z"  horiz-adv-x="566" vert-adv-y="1000"  />

      
      <glyph glyph-name="unic9" unicode="&#xc9;" d="M332 839L406 839L323 724L276 724L332 839M159 599L159 369L466 369L466 299L159 299L159 68L508 68L508 0L87 0L87 667L508 667L508 599L159 599Z"  horiz-adv-x="566" vert-adv-y="1000"  />

      
      <glyph glyph-name="unica" unicode="&#xca;" d="M323 845L404 724L348 724L303 795L257 724L201 724L282 845L323 845M159 599L159 369L466 369L466 299L159 299L159 68L508 68L508 0L87 0L87 667L508 667L508 599L159 599Z"  horiz-adv-x="566" vert-adv-y="1000"  />

      
      <glyph glyph-name="unicb" unicode="&#xcb;" d="M193 724L193 804L272 804L272 724L193 724M341 724L341 804L420 804L420 724L341 724M159 599L159 369L466 369L466 299L159 299L159 68L508 68L508 0L87 0L87 667L508 667L508 599L159 599Z"  horiz-adv-x="566" vert-adv-y="1000"  />

      
      <glyph glyph-name="unicc" unicode="&#xcc;" d="M87 0L87 667L159 667L159 0L87 0M90 839L147 724L99 724L16 839L90 839Z"  horiz-adv-x="245" vert-adv-y="1000"  />

      
      <glyph glyph-name="unicd" unicode="&#xcd;" d="M159 0L159 667L87 667L87 0L159 0M156 839L230 839L147 724L99 724L156 839Z"  horiz-adv-x="245" vert-adv-y="1000"  />

      
      <glyph glyph-name="unice" unicode="&#xce;" d="M159 0L159 667L87 667L87 0L159 0M144 845L224 724L168 724L123 795L78 724L22 724L102 845L144 845Z"  horiz-adv-x="245" vert-adv-y="1000"  />

      
      <glyph glyph-name="unicf" unicode="&#xcf;" d="M159 0L159 667L87 667L87 0L159 0M9 724L9 804L89 804L89 724L9 724M157 724L157 804L237 804L237 724L157 724Z"  horiz-adv-x="245" vert-adv-y="1000"  />

      
      <glyph glyph-name="unid0" unicode="&#xd0;" d="M340 667Q653 667 653 334Q653 0 340 0L131 0L131 303L53 303L53 363L131 363L131 667L340 667M335 68Q463 68 522 132Q581 196 581 334Q581 472 522 536Q463 600 335 600L203 600L203 363L374 363L374 303L203 303L203 68L335 68Z"  horiz-adv-x="717" vert-adv-y="1000"  />

      
      <glyph glyph-name="unid1" unicode="&#xd1;" d="M567 667L639 667L639 0L558 0L159 562L159 0L87 0L87 667L169 667L567 105L567 667M504 745Q478 713 448 709.50Q418 706 390.50 720.50Q363 735 335.50 749.50Q308 764 278 760.50Q248 757 222 725L222 782Q248 814 278 817Q308 820 335.50 805.50Q363 791 390.50 776.50Q418 762 448 765Q478 768 504 800L504 745Z"  horiz-adv-x="728" vert-adv-y="1000"  />

      
      <glyph glyph-name="unid2" unicode="&#xd2;" d="M370-8Q370-8 215.50-8Q61-8 61 334Q61 676 370 676Q679 676 679 334Q679-8 370-8M190 542Q190 542 161.50 509Q133 476 133 334Q133 192 190 126Q247 60 370 60Q493 60 550 126Q607 192 607 334Q607 476 550 542Q493 608 370 608Q247 608 190 542M348 839L405 724L358 724L275 839L348 839Z"  horiz-adv-x="747" vert-adv-y="1000"  />

      
      <glyph glyph-name="unid3" unicode="&#xd3;" d="M61 334Q61 334 61 505Q61 676 370 676Q679 676 679 334Q679-8 370-8Q61-8 61 334M190 126Q190 126 218.50 93Q247 60 370 60Q493 60 550 126Q607 192 607 334Q607 476 550 542Q493 608 370 608Q247 608 190 542Q133 476 133 334Q133 192 190 126M391 839L465 839L382 724L335 724L391 839Z"  horiz-adv-x="747" vert-adv-y="1000"  />

      
      <glyph glyph-name="unid4" unicode="&#xd4;" d="M61 334Q61 334 61 505Q61 676 370 676Q679 676 679 334Q679-8 370-8Q61-8 61 334M190 126Q190 126 218.50 93Q247 60 370 60Q493 60 550 126Q607 192 607 334Q607 476 550 542Q493 608 370 608Q247 608 190 542Q133 476 133 334Q133 192 190 126M391 845L471 724L415 724L370 795L325 724L269 724L349 845L391 845Z"  horiz-adv-x="747" vert-adv-y="1000"  />

      
      <glyph glyph-name="unid5" unicode="&#xd5;" d="M370 676Q680 676 680 334Q680-8 370-8Q61-8 61 334Q61 676 370 676M370 60Q494 60 551 126Q608 192 608 334Q608 476 551 542Q494 608 370 608Q247 608 190 542Q133 476 133 334Q133 192 190 126Q247 60 370 60M511 745Q485 713 455 709.50Q425 706 397.50 720.50Q370 735 342.50 749.50Q315 764 285.50 760.50Q256 757 230 725L230 782Q256 814 285.50 817Q315 820 342.50 805.50Q370 791 397.50 776.50Q425 762 455 765Q485 768 511 800L511 745Z"  horiz-adv-x="747" vert-adv-y="1000"  />

      
      <glyph glyph-name="unid6" unicode="&#xd6;" d="M256 724L256 804L336 804L336 724L256 724M404 724L404 804L484 804L484 724L404 724M61 334Q61 334 61 505Q61 676 370 676Q679 676 679 334Q679-8 370-8Q61-8 61 334M190 126Q190 126 218.50 93Q247 60 370 60Q493 60 550 126Q607 192 607 334Q607 476 550 542Q493 608 370 608Q247 608 190 542Q133 476 133 334Q133 192 190 126Z"  horiz-adv-x="747" vert-adv-y="1000"  />

      
      <glyph glyph-name="unid7" unicode="&#xd7;" d="M344 78L242 213L141 78L77 78L210 256L77 434L141 434L242 299L344 434L408 434L275 256L408 78L344 78Z"  horiz-adv-x="481" vert-adv-y="1000"  />

      
      <glyph glyph-name="unid8" unicode="&#xd8;" d="M691 667L613 575Q680 490 680 334Q680-9 370-9Q246-9 170 49L128 0L50 0L127 92Q61 176 61 334Q61 676 370 676Q495 676 571 618L613 667L691 667M133 334Q133 211 174 147L526 565Q470 608 370 608Q247 608 190 542Q133 476 133 334M608 334Q608 453 567 520L215 102Q271 59 370 59Q494 59 551 125Q608 191 608 334Z"  horiz-adv-x="747" vert-adv-y="1000"  />

      
      <glyph glyph-name="unid9" unicode="&#xd9;" d="M328 839L385 724L338 724L254 839L328 839M557 667L629 667L629 274Q629 137 559 64.50Q489-8 358-8Q227-8 157 64.50Q87 137 87 274L87 667L159 667L159 270Q159 58 358 58Q557 58 557 270L557 667Z"  horiz-adv-x="721" vert-adv-y="1000"  />

      
      <glyph glyph-name="unida" unicode="&#xda;" d="M388 839L462 839L379 724L331 724L388 839M557 667L629 667L629 274Q629 137 559 64.50Q489-8 358-8Q227-8 157 64.50Q87 137 87 274L87 667L159 667L159 270Q159 58 358 58Q557 58 557 270L557 667Z"  horiz-adv-x="721" vert-adv-y="1000"  />

      
      <glyph glyph-name="unidb" unicode="&#xdb;" d="M379 845L459 724L403 724L358 795L313 724L257 724L337 845L379 845M557 667L629 667L629 274Q629 137 559 64.50Q489-8 358-8Q227-8 157 64.50Q87 137 87 274L87 667L159 667L159 270Q159 58 358 58Q557 58 557 270L557 667Z"  horiz-adv-x="721" vert-adv-y="1000"  />

      
      <glyph glyph-name="unidc" unicode="&#xdc;" d="M244 724L244 804L324 804L324 724L244 724M392 724L392 804L472 804L472 724L392 724M557 667L629 667L629 274Q629 137 559 64.50Q489-8 358-8Q227-8 157 64.50Q87 137 87 274L87 667L159 667L159 270Q159 58 358 58Q557 58 557 270L557 667Z"  horiz-adv-x="721" vert-adv-y="1000"  />

      
      <glyph glyph-name="unidd" unicode="&#xdd;" d="M320 839L393 839L310 724L263 724L320 839M494 667L581 667L333 306L333 0L261 0L261 306L12 667L99 667L297 376L494 667Z"  horiz-adv-x="598" vert-adv-y="1000"  />

      
      <glyph glyph-name="unide" unicode="&#xde;" d="M288 566Q399 566 458.50 512.50Q518 459 518 359Q518 259 458.50 206Q399 153 288 153L158 153L158 0L86 0L86 667L158 667L158 566L288 566M278 222Q331 222 366.50 233.50Q402 245 418 267Q434 289 440 310Q446 331 446 359Q446 387 440 408Q434 429 418 451Q402 473 366.50 484.50Q331 496 278 496L158 496L158 222L278 222Z"  horiz-adv-x="570" vert-adv-y="1000"  />

      
      <glyph glyph-name="unidf" unicode="&#xdf;" d="M434 344Q439 342 447.50 338Q456 334 477.50 319Q499 304 515 286.50Q531 269 544.50 240.50Q558 212 558 180Q558 97 484.50 48.50Q411 0 297 0L297 65Q376 65 431 95Q486 125 486 187Q486 250 427 279Q368 308 297 308L297 371Q368 371 410.50 401.50Q453 432 453 490Q453 550 411.50 579.50Q370 609 303 609Q234 609 197 566.50Q160 524 160 420L160 0L88 0L88 424Q88 479 99.50 523Q111 567 135 602Q159 637 201.50 656.50Q244 676 303 676Q415 676 470 621Q525 566 525 490Q525 465 515.50 441Q506 417 493 400Q480 383 466.50 370Q453 357 444 350L434 344Z"  horiz-adv-x="613" vert-adv-y="1000"  />

      
      <glyph glyph-name="unie0" unicode="&#xe0;" d="M255 508Q360 508 415 455Q470 402 470 301L470 150Q470 102 448 68Q426 34 391 19Q356 4 325.50-2Q295-8 265-8Q242-8 218-5Q194-2 163.50 8.50Q133 19 110.50 35.50Q88 52 72 82.50Q56 113 56 153Q56 187 68.50 214Q81 241 99 258Q117 275 145 287Q173 299 194.50 304.50Q216 310 245.50 313Q275 316 287.50 316.50Q300 317 317 317L397 312Q397 379 360 407.50Q323 436 251 436Q170 436 105 412L105 482Q179 508 255 508M398 150L398 246Q365 252 309 252Q128 252 128 153Q128 59 265 59Q398 59 398 150M247 679L304 564L257 564L174 679L247 679Z"  horiz-adv-x="534" vert-adv-y="1000"  />

      
      <glyph glyph-name="unie1" unicode="&#xe1;" d="M255 508Q360 508 415 455Q470 402 470 301L470 150Q470 102 448 68Q426 34 391 19Q356 4 325.50-2Q295-8 265-8Q242-8 218-5Q194-2 163.50 8.50Q133 19 110.50 35.50Q88 52 72 82.50Q56 113 56 153Q56 187 68.50 214Q81 241 99 258Q117 275 145 287Q173 299 194.50 304.50Q216 310 245.50 313Q275 316 287.50 316.50Q300 317 317 317L397 312Q397 379 360 407.50Q323 436 251 436Q170 436 105 412L105 482Q179 508 255 508M398 150L398 246Q365 252 309 252Q128 252 128 153Q128 59 265 59Q398 59 398 150M285 679L359 679L276 564L228 564L285 679Z"  horiz-adv-x="534" vert-adv-y="1000"  />

      
      <glyph glyph-name="unie2" unicode="&#xe2;" d="M255 508Q360 508 415 455Q470 402 470 301L470 150Q470 102 448 68Q426 34 391 19Q356 4 325.50-2Q295-8 265-8Q242-8 218-5Q194-2 163.50 8.50Q133 19 110.50 35.50Q88 52 72 82.50Q56 113 56 153Q56 187 68.50 214Q81 241 99 258Q117 275 145 287Q173 299 194.50 304.50Q216 310 245.50 313Q275 316 287.50 316.50Q300 317 317 317L397 312Q397 379 360 407.50Q323 436 251 436Q170 436 105 412L105 482Q179 508 255 508M398 150L398 246Q365 252 309 252Q128 252 128 153Q128 59 265 59Q398 59 398 150M299 684L379 564L323 564L278 634L233 564L177 564L257 684L299 684Z"  horiz-adv-x="534" vert-adv-y="1000"  />

      
      <glyph glyph-name="unie3" unicode="&#xe3;" d="M255 508Q360 508 415 455Q470 402 470 301L470 150Q470 102 448 68Q426 34 391 19Q356 4 325.50-2Q295-8 265-8Q242-8 218-5Q194-2 163.50 8.50Q133 19 110.50 35.50Q88 52 72 82.50Q56 113 56 153Q56 187 68.50 214Q81 241 99 258Q117 275 144.50 287Q172 299 194 304.50Q216 310 245.50 313Q275 316 287 316.50Q299 317 316 317L397 312Q397 379 360 407.50Q323 436 251 436Q178 436 105 413L105 482Q174 508 255 508M398 150L398 246Q365 252 309 252Q128 252 128 154Q128 59 265 59Q398 59 398 150M413 585Q387 553 357 549.50Q327 546 299.50 560.50Q272 575 244.50 589.50Q217 604 187 600.50Q157 597 131 565L131 622Q157 654 187 657Q217 660 244.50 645.50Q272 631 299.50 616.50Q327 602 357 605Q387 608 413 640L413 585Z"  horiz-adv-x="534" vert-adv-y="1000"  />

      
      <glyph glyph-name="unie4" unicode="&#xe4;" d="M164 564L164 643L244 643L244 564L164 564M312 564L312 643L392 643L392 564L312 564M255 508Q360 508 415 455Q470 402 470 301L470 150Q470 102 448 68Q426 34 391 19Q356 4 325.50-2Q295-8 265-8Q242-8 218-5Q194-2 163.50 8.50Q133 19 110.50 35.50Q88 52 72 82.50Q56 113 56 153Q56 187 68.50 214Q81 241 99 258Q117 275 145 287Q173 299 194.50 304.50Q216 310 245.50 313Q275 316 287.50 316.50Q300 317 317 317L397 312Q397 379 360 407.50Q323 436 251 436Q170 436 105 412L105 482Q179 508 255 508M398 150L398 246Q365 252 309 252Q128 252 128 153Q128 59 265 59Q398 59 398 150Z"  horiz-adv-x="534" vert-adv-y="1000"  />

      
      <glyph glyph-name="unie5" unicode="&#xe5;" d="M255 508Q360 508 415 455Q470 402 470 301L470 150Q470 102 448 68Q426 34 391 19Q356 4 325.50-2Q295-8 265-8Q242-8 218-5Q194-2 163.50 8.50Q133 19 110.50 35.50Q88 52 72 82.50Q56 113 56 153Q56 187 68.50 214Q81 241 99 258Q117 275 145 287Q173 299 194.50 304.50Q216 310 245.50 313Q275 316 287.50 316.50Q300 317 317 317L397 312Q397 379 360 407.50Q323 436 251 436Q170 436 105 412L105 482Q179 508 255 508M398 150L398 246Q365 252 309 252Q128 252 128 153Q128 59 265 59Q398 59 398 150M213 678Q213 678 223.50 688.50Q234 699 273 699Q312 699 333 678Q354 657 354 617Q354 577 333 556Q312 535 273 535Q234 535 213 556Q192 577 192 617Q192 657 213 678M273 568Q297 568 307.50 579.50Q318 591 318 617Q318 643 307.50 654Q297 665 273 665Q248 665 238 654Q228 643 228 617Q228 591 238 579.50Q248 568 273 568Z"  horiz-adv-x="534" vert-adv-y="1000"  />

      
      <glyph glyph-name="unie6" unicode="&#xe6;" d="M613 508Q659 508 696.50 493.50Q734 479 756 459.50Q778 440 794.50 408.50Q811 377 818 355Q825 333 829 302Q833 271 833 263.50Q833 256 833 242L831 207L467 207Q474 132 513 98Q552 64 630 64Q737 64 801 101L801 27Q726-8 622-8Q501-8 444 66Q393-8 263-8Q240-8 216-5Q192-2 161.50 8.50Q131 19 108.50 35.50Q86 52 70 82.50Q54 113 54 153Q54 187 66.50 214Q79 241 97 258Q115 275 142.50 287Q170 299 192 304.50Q214 310 243.50 313Q273 316 285 316.50Q297 317 314 317L395 312Q395 379 358 407.50Q321 436 249 436Q168 436 103 412L103 482Q177 508 252 508Q383 508 436 426Q491 508 613 508M395 150L395 246Q363 252 307 252Q126 252 126 153Q126 59 263 59Q395 59 395 150M467 271L759 271Q759 288 755 309Q751 330 738.50 363Q726 396 693.50 418Q661 440 613 440Q540 440 506 401.50Q472 363 467 271Z"  horiz-adv-x="891" vert-adv-y="1000"  />

      
      <glyph glyph-name="unie7" unicode="&#xe7;" d="M300 439Q211 439 170.50 394Q130 349 130 250Q130 150 170.50 105.50Q211 61 300 61Q375 61 440 89L440 19Q384-1 330-7L268-119L192-119L272-8Q230-6 195 7Q160 20 127.50 47.50Q95 75 76.50 126.50Q58 178 58 250Q58 326 79 379.50Q100 433 136 459.50Q172 486 209.50 497Q247 508 292 508Q367 508 440 480L440 411Q372 439 300 439Z"  horiz-adv-x="472" vert-adv-y="1000"  />

      
      <glyph glyph-name="unie8" unicode="&#xe8;" d="M282 508Q328 508 365.50 493.50Q403 479 425 459.50Q447 440 463.50 408.50Q480 377 487 355Q494 333 498 302Q502 271 502 263.50Q502 256 502 242L500 207L136 207Q143 132 182 98Q221 64 298 64Q407 64 469 101L469 27Q396-8 291-8Q247-8 210.50 2.50Q174 13 138.50 39Q103 65 83 117Q63 169 63 243Q63 245 63 248Q62 508 282 508M136 271L428 271Q428 288 424 309Q420 330 407.50 363Q395 396 362.50 418Q330 440 282 440Q208 440 174.50 401.50Q141 363 136 271M267 679L324 564L276 564L193 679L267 679Z"  horiz-adv-x="555" vert-adv-y="1000"  />

      
      <glyph glyph-name="unie9" unicode="&#xe9;" d="M282 508Q328 508 365.50 493.50Q403 479 425 459.50Q447 440 463.50 408.50Q480 377 487 355Q494 333 498 302Q502 271 502 263.50Q502 256 502 242L500 207L136 207Q143 132 182 98Q221 64 298 64Q407 64 469 101L469 27Q396-8 291-8Q247-8 210.50 2.50Q174 13 138.50 39Q103 65 83 117Q63 169 63 243Q63 245 63 248Q62 508 282 508M136 271L428 271Q428 288 424 309Q420 330 407.50 363Q395 396 362.50 418Q330 440 282 440Q208 440 174.50 401.50Q141 363 136 271M304 679L378 679L295 564L247 564L304 679Z"  horiz-adv-x="555" vert-adv-y="1000"  />

      
      <glyph glyph-name="uniea" unicode="&#xea;" d="M282 508Q328 508 365.50 493.50Q403 479 425 459.50Q447 440 463.50 408.50Q480 377 487 355Q494 333 498 302Q502 271 502 263.50Q502 256 502 242L500 207L136 207Q143 132 182 98Q221 64 298 64Q407 64 469 101L469 27Q396-8 291-8Q247-8 210.50 2.50Q174 13 138.50 39Q103 65 83 117Q63 169 63 243Q63 245 63 248Q62 508 282 508M136 271L428 271Q428 288 424 309Q420 330 407.50 363Q395 396 362.50 418Q330 440 282 440Q208 440 174.50 401.50Q141 363 136 271M303 684L383 564L327 564L282 634L237 564L181 564L261 684L303 684Z"  horiz-adv-x="555" vert-adv-y="1000"  />

      
      <glyph glyph-name="unieb" unicode="&#xeb;" d="M282 508Q328 508 365.50 493.50Q403 479 425 459.50Q447 440 463.50 408.50Q480 377 487 355Q494 333 498 302Q502 271 502 263.50Q502 256 502 242L500 207L136 207Q143 132 182 98Q221 64 298 64Q407 64 469 101L469 27Q396-8 291-8Q247-8 210.50 2.50Q174 13 138.50 39Q103 65 83 117Q63 169 63 243Q63 245 63 248Q62 508 282 508M136 271L428 271Q428 288 424 309Q420 330 407.50 363Q395 396 362.50 418Q330 440 282 440Q208 440 174.50 401.50Q141 363 136 271M168 564L168 643L248 643L248 564L168 564M316 564L316 643L396 643L396 564L316 564Z"  horiz-adv-x="555" vert-adv-y="1000"  />

      
      <glyph glyph-name="uniec" unicode="&#xec;" d="M99 0L99 499L171 499L171 0L99 0M102 679L159 564L111 564L28 679L102 679Z"  horiz-adv-x="270" vert-adv-y="1000"  />

      
      <glyph glyph-name="unied" unicode="&#xed;" d="M171 0L171 499L99 499L99 0L171 0M167 679L241 679L158 564L111 564L167 679Z"  horiz-adv-x="270" vert-adv-y="1000"  />

      
      <glyph glyph-name="uniee" unicode="&#xee;" d="M171 0L171 499L99 499L99 0L171 0M155 684L236 564L180 564L135 634L89 564L33 564L114 684L155 684Z"  horiz-adv-x="270" vert-adv-y="1000"  />

      
      <glyph glyph-name="unief" unicode="&#xef;" d="M171 0L171 499L99 499L99 0L171 0M21 564L21 643L100 643L100 564L21 564M169 564L169 643L248 643L248 564L169 564Z"  horiz-adv-x="270" vert-adv-y="1000"  />

      
      <glyph glyph-name="unif0" unicode="&#xf0;" d="M416 597Q512 503 512 306Q512-8 285-8Q225-8 179.50 12Q134 32 108.50 65.50Q83 99 70.50 137.50Q58 176 58 217Q58 314 119 370.50Q180 427 285 427Q376 427 435 383Q423 502 350 561L238 498L211 546L294 592Q252 608 200 608Q180 608 146 604L146 671Q178 676 208 676Q298 676 368 634L461 686L487 638L416 597M285 60Q306 60 319.50 61.50Q333 63 358 76Q383 89 398.50 112.50Q414 136 426.50 185Q439 234 440 303Q386 360 285 360Q210 360 170 323Q130 286 130 218Q130 198 134.50 177Q139 156 153 126.50Q167 97 201 78.50Q235 60 285 60Z"  horiz-adv-x="583" vert-adv-y="1000"  />

      
      <glyph glyph-name="unif1" unicode="&#xf1;" d="M293 508Q387 508 439 460Q491 412 491 325L491 0L419 0L419 325Q419 346 414.50 362.50Q410 379 397.50 397.50Q385 416 356.50 426Q328 436 285 436Q222 436 154 416L154 0L82 0L82 459Q180 508 293 508M427 585Q401 553 371 549.50Q341 546 313.50 560.50Q286 575 258.50 589.50Q231 604 201.50 600.50Q172 597 146 565L146 622Q172 654 201.50 657Q231 660 258.50 645.50Q286 631 313.50 616.50Q341 602 371 605Q401 608 427 640L427 585Z"  horiz-adv-x="581" vert-adv-y="1000"  />

      
      <glyph glyph-name="unif2" unicode="&#xf2;" d="M70 120.50Q70 120.50 59.50 147.25Q49 174 49 250Q49 326 70 379.50Q91 433 127 459.50Q163 486 201 497Q239 508 284 508Q329 508 366.50 497Q404 486 440 459.50Q476 433 497 379.50Q518 326 518 250Q518 174 497 120.50Q476 67 440 40.50Q404 14 366.50 3Q329-8 284-8Q239-8 201 3Q163 14 127 40.50Q91 67 70 120.50M160 396.50Q160 396.50 140.50 373.75Q121 351 121 250Q121 149 160 103.50Q199 58 284 58Q369 58 407.50 104Q446 150 446 250Q446 350 407.50 396Q369 442 284 442Q199 442 160 396.50M251 679L308 564L260 564L177 679L251 679Z"  horiz-adv-x="564" vert-adv-y="1000"  />

      
      <glyph glyph-name="unif3" unicode="&#xf3;" d="M201 497Q201 497 220 502.50Q239 508 284 508Q329 508 366.50 497Q404 486 440 459.50Q476 433 497 379.50Q518 326 518 250Q518 174 497 120.50Q476 67 440 40.50Q404 14 366.50 3Q329-8 284-8Q239-8 201 3Q163 14 127 40.50Q91 67 70 120.50Q49 174 49 250Q49 326 70 379.50Q91 433 127 459.50Q163 486 201 497M160 103.50Q160 103.50 179.50 80.75Q199 58 284 58Q369 58 407.50 104Q446 150 446 250Q446 350 407.50 396Q369 442 284 442Q199 442 160 396.50Q121 351 121 250Q121 149 160 103.50M316 679L390 679L307 564L259 564L316 679Z"  horiz-adv-x="564" vert-adv-y="1000"  />

      
      <glyph glyph-name="unif4" unicode="&#xf4;" d="M70 120.50Q70 120.50 59.50 147.25Q49 174 49 250Q49 326 70 379.50Q91 433 127 459.50Q163 486 201 497Q239 508 284 508Q329 508 366.50 497Q404 486 440 459.50Q476 433 497 379.50Q518 326 518 250Q518 174 497 120.50Q476 67 440 40.50Q404 14 366.50 3Q329-8 284-8Q239-8 201 3Q163 14 127 40.50Q91 67 70 120.50M160 396.50Q160 396.50 140.50 373.75Q121 351 121 250Q121 149 160 103.50Q199 58 284 58Q369 58 407.50 104Q446 150 446 250Q446 350 407.50 396Q369 442 284 442Q199 442 160 396.50M304 684L385 564L329 564L284 634L238 564L182 564L263 684L304 684Z"  horiz-adv-x="564" vert-adv-y="1000"  />

      
      <glyph glyph-name="unif5" unicode="&#xf5;" d="M70 120.50Q70 120.50 59.50 147.25Q49 174 49 250Q49 326 70 379.50Q91 433 127 459.50Q163 486 200.50 497Q238 508 283 508Q328 508 366 497Q404 486 440 459.50Q476 433 497 379.50Q518 326 518 250Q518 174 497 120.50Q476 67 440 40.50Q404 14 366 3Q328-8 283-8Q238-8 200.50 3Q163 14 127 40.50Q91 67 70 120.50M159.50 396.50Q159.50 396.50 140.25 373.75Q121 351 121 250Q121 149 159.50 103.50Q198 58 283 58Q368 58 407 103.50Q446 149 446 250Q446 351 407 396.50Q368 442 283 442Q198 442 159.50 396.50M428 585Q402 553 372 549.50Q342 546 314.50 560.50Q287 575 259.50 589.50Q232 604 202.50 601Q173 598 147 566L147 622Q173 654 202.50 657.50Q232 661 259.50 646.50Q287 632 314.50 617Q342 602 372 605.50Q402 609 428 641L428 585Z"  horiz-adv-x="564" vert-adv-y="1000"  />

      
      <glyph glyph-name="unif6" unicode="&#xf6;" d="M70 120.50Q70 120.50 59.50 147.25Q49 174 49 250Q49 326 70 379.50Q91 433 127 459.50Q163 486 201 497Q239 508 284 508Q329 508 366.50 497Q404 486 440 459.50Q476 433 497 379.50Q518 326 518 250Q518 174 497 120.50Q476 67 440 40.50Q404 14 366.50 3Q329-8 284-8Q239-8 201 3Q163 14 127 40.50Q91 67 70 120.50M160 396.50Q160 396.50 140.50 373.75Q121 351 121 250Q121 149 160 103.50Q199 58 284 58Q369 58 407.50 104Q446 150 446 250Q446 350 407.50 396Q369 442 284 442Q199 442 160 396.50M170 564L170 643L249 643L249 564L170 564M318 564L318 643L397 643L397 564L318 564Z"  horiz-adv-x="564" vert-adv-y="1000"  />

      
      <glyph glyph-name="unif7" unicode="&#xf7;" d="M274 359L274 439L354 439L354 359L274 359M274 74L274 154L354 154L354 74L274 74M517 227L517 287L111 287L111 227L517 227Z"  horiz-adv-x="628" vert-adv-y="1000"  />

      
      <glyph glyph-name="unif8" unicode="&#xf8;" d="M458 499L536 499L475 426Q521 362 521 250Q521 174 500 120.50Q479 67 443 40.50Q407 14 369.50 3Q332-8 287-8Q198-8 142 31L115 0L37 0L99 74Q52 139 52 250Q52 326 73 379.50Q94 433 130 459.50Q166 486 204 497Q242 508 287 508Q375 508 432 468L458 499M124 250Q124 173 146 130L388 416Q350 442 287 442Q202 442 163 396.50Q124 351 124 250M449 250Q449 326 427 370L186 83Q223 58 287 58Q372 58 410.50 103.50Q449 149 449 250Z"  horiz-adv-x="574" vert-adv-y="1000"  />

      
      <glyph glyph-name="unif9" unicode="&#xf9;" d="M428 499L500 499L500 210Q500 106 445.50 49Q391-8 291-8Q191-8 136.50 49Q82 106 82 210L82 499L154 499L154 206Q154 130 187 94.50Q220 59 291 59Q361 59 394.50 94.50Q428 130 428 206L428 499M261 679L318 564L270 564L187 679L261 679Z"  horiz-adv-x="587" vert-adv-y="1000"  />

      
      <glyph glyph-name="unifa" unicode="&#xfa;" d="M428 499L500 499L500 210Q500 106 445.50 49Q391-8 291-8Q191-8 136.50 49Q82 106 82 210L82 499L154 499L154 206Q154 130 187 94.50Q220 59 291 59Q361 59 394.50 94.50Q428 130 428 206L428 499M321 679L394 679L311 564L264 564L321 679Z"  horiz-adv-x="587" vert-adv-y="1000"  />

      
      <glyph glyph-name="unifb" unicode="&#xfb;" d="M428 499L500 499L500 210Q500 106 445.50 49Q391-8 291-8Q191-8 136.50 49Q82 106 82 210L82 499L154 499L154 206Q154 130 187 94.50Q220 59 291 59Q361 59 394.50 94.50Q428 130 428 206L428 499M311 684L392 564L336 564L291 634L246 564L190 564L270 684L311 684Z"  horiz-adv-x="587" vert-adv-y="1000"  />

      
      <glyph glyph-name="unifc" unicode="&#xfc;" d="M428 499L500 499L500 210Q500 106 445.50 49Q391-8 291-8Q191-8 136.50 49Q82 106 82 210L82 499L154 499L154 206Q154 130 187 94.50Q220 59 291 59Q361 59 394.50 94.50Q428 130 428 206L428 499M177 564L177 643L257 643L257 564L177 564M325 564L325 643L405 643L405 564L325 564Z"  horiz-adv-x="587" vert-adv-y="1000"  />

      
      <glyph glyph-name="unifd" unicode="&#xfd;" d="M394 499L471 499L267-49Q214-193 111-193Q86-193 63-184L63-118Q83-127 106-127Q137-127 164-93.50Q191-60 203-26L215 8L31 499L108 499L251 104L394 499M276 679L350 679L267 564L219 564L276 679Z"  horiz-adv-x="502" vert-adv-y="1000"  />

      
      <glyph glyph-name="unife" unicode="&#xfe;" d="M278 501Q312 501 342 495Q372 489 403 472Q434 455 456.50 428Q479 401 493 355Q507 309 507 249Q507 175 486.50 123Q466 71 430.50 45Q395 19 358 8.50Q321-2 278-2Q215-2 155 18L155-184L83-184L83 683L155 683L155 481Q215 501 278 501M278 65Q361 65 398 108.50Q435 152 435 249Q435 346 398 390Q361 434 278 434Q212 434 155 409L155 90Q212 65 278 65Z"  horiz-adv-x="555" vert-adv-y="1000"  />

      
      <glyph glyph-name="uniff" unicode="&#xff;" d="M394 499L471 499L267-49Q214-193 111-193Q86-193 63-184L63-118Q83-127 106-127Q137-127 164-93.50Q191-60 203-26L215 8L31 499L108 499L251 104L394 499M136 564L136 643L215 643L215 564L136 564M284 564L284 643L363 643L363 564L284 564Z"  horiz-adv-x="502" vert-adv-y="1000"  />

      
      <glyph glyph-name="uni0100" unicode="&#x0100;" d="M359 667L624 0L547 0L467 208L179 208L99 0L21 0L287 667L359 667M206 277L440 277L323 582L206 277M206 736L206 789L440 789L440 736L206 736Z"  horiz-adv-x="647" vert-adv-y="1000"  />

      
      <glyph glyph-name="uni0101" unicode="&#x0101;" d="M153 576L153 629L387 629L387 576L153 576M255 508Q360 508 415 455Q470 402 470 301L470 150Q470 102 448 68Q426 34 391 19Q356 4 325.50-2Q295-8 265-8Q242-8 218-5Q194-2 163.50 8.50Q133 19 110.50 35.50Q88 52 72 82.50Q56 113 56 153Q56 187 68.50 214Q81 241 99 258Q117 275 145 287Q173 299 194.50 304.50Q216 310 245.50 313Q275 316 287.50 316.50Q300 317 317 317L397 312Q397 379 360 407.50Q323 436 251 436Q170 436 105 412L105 482Q179 508 255 508M398 150L398 246Q365 252 309 252Q128 252 128 153Q128 59 265 59Q398 59 398 150Z"  horiz-adv-x="534" vert-adv-y="1000"  />

      
      <glyph glyph-name="uni0102" unicode="&#x0102;" d="M359 667L624 0L547 0L467 208L179 208L99 0L21 0L287 667L359 667M206 277L440 277L323 582L206 277M380 809L428 809Q428 760 400 732.50Q372 705 323 705Q274 705 246 732.50Q218 760 218 809L266 809Q266 780 279.50 766.50Q293 753 323 753Q353 753 366.50 766.50Q380 780 380 809Z"  horiz-adv-x="647" vert-adv-y="1000"  />

      
      <glyph glyph-name="uni0103" unicode="&#x0103;" d="M255 508Q360 508 415 455Q470 402 470 301L470 150Q470 102 448 68Q426 34 391 19Q356 4 325.50-2Q295-8 265-8Q242-8 218-5Q194-2 163.50 8.50Q133 19 110.50 35.50Q88 52 72 82.50Q56 113 56 153Q56 187 68.50 214Q81 241 99 258Q117 275 145 287Q173 299 194.50 304.50Q216 310 245.50 313Q275 316 287.50 316.50Q300 317 317 317L397 312Q397 379 360 407.50Q323 436 251 436Q170 436 105 412L105 482Q179 508 255 508M398 150L398 246Q365 252 309 252Q128 252 128 153Q128 59 265 59Q398 59 398 150M329 649L377 649Q377 600 349 572.50Q321 545 272 545Q223 545 195 572.50Q167 600 167 649L215 649Q215 619 228.50 606Q242 593 272 593Q302 593 315.50 606Q329 619 329 649Z"  horiz-adv-x="534" vert-adv-y="1000"  />

      
      <glyph glyph-name="uni0104" unicode="&#x0104;" d="M615-99L646-99Q638-131 611-152Q584-173 543-173Q477-173 477-109Q477-82 494.50-54.50Q512-27 530-14L547 0L467 208L179 208L99 0L21 0L287 667L359 667L624 0Q621-2 615.50-5.50Q610-9 596.50-19.50Q583-30 572.50-41Q562-52 553.50-66.50Q545-81 545-94Q545-129 571-129Q592-129 615-99M206 277L440 277L323 582L206 277Z"  horiz-adv-x="647" vert-adv-y="1000"  />

      
      <glyph glyph-name="uni0105" unicode="&#x0105;" d="M255 508Q360 508 415 455Q470 402 470 301L470 150Q470 22 320-4Q307-12 292.50-23.50Q278-35 262-55.50Q246-76 246-94Q246-129 272-129Q295-129 316-99L347-99Q340-131 312.50-152Q285-173 244-173Q178-173 178-109Q178-57 251-8Q220-7 190.50 0Q161 7 128.50 23.50Q96 40 76 73Q56 106 56 153Q56 187 68.50 214Q81 241 99 258Q117 275 145 287Q173 299 194.50 304.50Q216 310 245.50 313Q275 316 287.50 316.50Q300 317 317 317L397 312Q397 379 360 407.50Q323 436 251 436Q170 436 105 412L105 482Q179 508 255 508M398 150L398 246Q365 252 309 252Q128 252 128 153Q128 59 265 59Q398 59 398 150Z"  horiz-adv-x="534" vert-adv-y="1000"  />

      
      <glyph glyph-name="uni0106" unicode="&#x0106;" d="M389 840L463 840L380 725L332 725L389 840M192 542Q192 542 162.50 509Q133 476 133 334Q133 192 192 126Q251 60 378 60Q480 60 573 99L573 30Q476-8 370-8Q61-8 61 334Q61 676 370 676Q477 676 573 637L573 568Q479 608 378 608Q251 608 192 542Z"  horiz-adv-x="628" vert-adv-y="1000"  />

      
      <glyph glyph-name="uni0107" unicode="&#x0107;" d="M318 679L392 679L308 564L261 564L318 679M130 250Q130 150 170.50 105.50Q211 61 300 61Q375 61 440 89L440 19Q370-8 292-8Q247-8 209.50 3Q172 14 136 40.50Q100 67 79 120.50Q58 174 58 250Q58 326 79 379.50Q100 433 136 459.50Q172 486 209.50 497Q247 508 292 508Q367 508 440 480L440 411Q372 439 300 439Q211 439 170.50 394Q130 349 130 250Z"  horiz-adv-x="472" vert-adv-y="1000"  />

      
      <glyph glyph-name="uni0108" unicode="&#x0108;" d="M382 844L463 724L407 724L362 794L316 724L260 724L341 844L382 844M192 544Q192 544 162.50 511Q133 478 133 336Q133 194 192 128Q251 62 378 62Q480 62 573 101L573 33Q477-6 370-6Q61-6 61 336Q61 678 370 678Q477 678 573 639L573 571Q478 610 378 610Q251 610 192 544Z"  horiz-adv-x="628" vert-adv-y="1000"  />

      
      <glyph glyph-name="uni0109" unicode="&#x0109;" d="M298 684L379 564L323 564L277 634L232 564L176 564L257 684L298 684M130 250Q130 150 170.50 105.50Q211 61 300 61Q375 61 440 89L440 19Q370-8 292-8Q247-8 209.50 3Q172 14 136 40.50Q100 67 79 120.50Q58 174 58 250Q58 326 79 379.50Q100 433 136 459.50Q172 486 209.50 497Q247 508 292 508Q367 508 440 480L440 411Q372 439 300 439Q211 439 170.50 394Q130 349 130 250Z"  horiz-adv-x="472" vert-adv-y="1000"  />

      
      <glyph glyph-name="uni010A" unicode="&#x010A;" d="M317 724L317 804L397 804L397 724L317 724M192 544Q192 544 162.50 511Q133 478 133 336Q133 194 192 128Q251 62 378 62Q480 62 573 101L573 33Q477-6 370-6Q61-6 61 336Q61 678 370 678Q477 678 573 639L573 571Q478 610 378 610Q251 610 192 544Z"  horiz-adv-x="628" vert-adv-y="1000"  />

      
      <glyph glyph-name="uni010B" unicode="&#x010B;" d="M236 564L236 643L315 643L315 564L236 564M130 250Q130 150 170.50 105.50Q211 61 300 61Q375 61 440 89L440 19Q370-8 292-8Q247-8 209.50 3Q172 14 136 40.50Q100 67 79 120.50Q58 174 58 250Q58 326 79 379.50Q100 433 136 459.50Q172 486 209.50 497Q247 508 292 508Q367 508 440 480L440 411Q372 439 300 439Q211 439 170.50 394Q130 349 130 250Z"  horiz-adv-x="472" vert-adv-y="1000"  />

      
      <glyph glyph-name="uni010C" unicode="&#x010C;" d="M341 724L260 844L316 844L362 773L407 844L463 844L382 724L341 724M192 544Q192 544 162.50 511Q133 478 133 336Q133 194 192 128Q251 62 378 62Q480 62 573 101L573 33Q477-6 370-6Q61-6 61 336Q61 678 370 678Q477 678 573 639L573 571Q478 610 378 610Q251 610 192 544Z"  horiz-adv-x="628" vert-adv-y="1000"  />

      
      <glyph glyph-name="uni010D" unicode="&#x010D;" d="M257 564L176 684L232 684L277 614L323 684L379 684L298 564L257 564M130 250Q130 150 170.50 105.50Q211 61 300 61Q375 61 440 89L440 19Q370-8 292-8Q247-8 209.50 3Q172 14 136 40.50Q100 67 79 120.50Q58 174 58 250Q58 326 79 379.50Q100 433 136 459.50Q172 486 209.50 497Q247 508 292 508Q367 508 440 480L440 411Q372 439 300 439Q211 439 170.50 394Q130 349 130 250Z"  horiz-adv-x="472" vert-adv-y="1000"  />

      
      <glyph glyph-name="uni010E" unicode="&#x010E;" d="M277 724L197 845L253 845L298 774L343 845L399 845L319 724L277 724M87 667L296 667Q609 667 609 334Q609 0 296 0L87 0L87 667M291 68Q419 68 478 132Q537 196 537 334Q537 472 478 536Q419 600 291 600L159 600L159 68L291 68Z"  horiz-adv-x="670" vert-adv-y="1000"  />

      
      <glyph glyph-name="uni010F" unicode="&#x010F;" d="M63 256Q63 330 83.50 382.50Q104 435 139 460.50Q174 486 211 497Q248 508 291 508Q353 508 415 488L415 689L487 689L487 149Q487 129 481 108Q475 87 456.50 58Q438 29 393 10.50Q348-8 282-8Q254-8 227.50-3Q201 2 170 19Q139 36 116.50 63.50Q94 91 78.50 140.50Q63 190 63 256M135 256Q135 193 148.50 150.50Q162 108 186 89.50Q210 71 232 64.50Q254 58 282 58Q415 58 415 146L415 416Q354 441 291 441Q209 441 172 397Q135 353 135 256M622 689Q622 625 592 590Q562 555 522 545L522 600Q563 615 563 689L622 689Z"  horiz-adv-x="660" vert-adv-y="1000"  />

      
      <glyph glyph-name="uni0110" unicode="&#x0110;" d="M340 667Q653 667 653 334Q653 0 340 0L131 0L131 303L53 303L53 363L131 363L131 667L340 667M335 68Q463 68 522 132Q581 196 581 334Q581 472 522 536Q463 600 335 600L203 600L203 363L374 363L374 303L203 303L203 68L335 68Z"  horiz-adv-x="717" vert-adv-y="1000"  />

      
      <glyph glyph-name="uni0111" unicode="&#x0111;" d="M554 626L554 565L487 565L487 149Q487 129 481 108Q475 87 456.50 58Q438 29 393 10.50Q348-8 282-8Q254-8 227.50-3Q201 2 170 19Q139 36 116.50 63.50Q94 91 78.50 140.50Q63 190 63 256Q63 330 83.50 382.50Q104 435 139 460.50Q174 486 211 497Q248 508 291 508Q353 508 415 488L415 565L283 565L283 626L415 626L415 689L487 689L487 626L554 626M415 146L415 416Q354 441 291 441Q209 441 172 397Q135 353 135 256Q135 193 148.50 150.50Q162 108 186 89.50Q210 71 232 64.50Q254 58 282 58Q415 58 415 146Z"  horiz-adv-x="600" vert-adv-y="1000"  />

      
      <glyph glyph-name="uni0112" unicode="&#x0112;" d="M189 736L189 789L423 789L423 736L189 736M159 599L159 369L466 369L466 299L159 299L159 68L508 68L508 0L87 0L87 667L508 667L508 599L159 599Z"  horiz-adv-x="566" vert-adv-y="1000"  />

      
      <glyph glyph-name="uni0113" unicode="&#x0113;" d="M282 508Q328 508 365.50 493.50Q403 479 425 459.50Q447 440 463.50 408.50Q480 377 487 355Q494 333 498 302Q502 271 502 263.50Q502 256 502 242L500 207L136 207Q143 132 182 98Q221 64 298 64Q407 64 469 101L469 27Q396-8 291-8Q247-8 210.50 2.50Q174 13 138.50 39Q103 65 83 117Q63 169 63 243Q63 245 63 248Q62 508 282 508M136 271L428 271Q428 288 424 309Q420 330 407.50 363Q395 396 362.50 418Q330 440 282 440Q208 440 174.50 401.50Q141 363 136 271M165 576L165 629L399 629L399 576L165 576Z"  horiz-adv-x="555" vert-adv-y="1000"  />

      
      <glyph glyph-name="uni0114" unicode="&#x0114;" d="M360 809L408 809Q408 760 380 732.50Q352 705 303 705Q254 705 226 732.50Q198 760 198 809L246 809Q246 780 259.50 766.50Q273 753 303 753Q333 753 346.50 766.50Q360 780 360 809M159 599L159 369L466 369L466 299L159 299L159 68L508 68L508 0L87 0L87 667L508 667L508 599L159 599Z"  horiz-adv-x="566" vert-adv-y="1000"  />

      
      <glyph glyph-name="uni0115" unicode="&#x0115;" d="M282 508Q328 508 365.50 493.50Q403 479 425 459.50Q447 440 463.50 408.50Q480 377 487 355Q494 333 498 302Q502 271 502 263.50Q502 256 502 242L500 207L136 207Q143 132 182 98Q221 64 298 64Q407 64 469 101L469 27Q396-8 291-8Q247-8 210.50 2.50Q174 13 138.50 39Q103 65 83 117Q63 169 63 243Q63 245 63 248Q62 508 282 508M136 271L428 271Q428 288 424 309Q420 330 407.50 363Q395 396 362.50 418Q330 440 282 440Q208 440 174.50 401.50Q141 363 136 271M341 649L389 649Q389 600 361 572.50Q333 545 284 545Q235 545 207 572.50Q179 600 179 649L227 649Q227 619 240.50 606Q254 593 284 593Q314 593 327.50 606Q341 619 341 649Z"  horiz-adv-x="555" vert-adv-y="1000"  />

      
      <glyph glyph-name="uni0116" unicode="&#x0116;" d="M264 724L264 804L343 804L343 724L264 724M159 599L159 369L466 369L466 299L159 299L159 68L508 68L508 0L87 0L87 667L508 667L508 599L159 599Z"  horiz-adv-x="566" vert-adv-y="1000"  />

      
      <glyph glyph-name="uni0117" unicode="&#x0117;" d="M282 508Q328 508 365.50 493.50Q403 479 425 459.50Q447 440 463.50 408.50Q480 377 487 355Q494 333 498 302Q502 271 502 263.50Q502 256 502 242L500 207L136 207Q143 132 182 98Q221 64 298 64Q407 64 469 101L469 27Q396-8 291-8Q247-8 210.50 2.50Q174 13 138.50 39Q103 65 83 117Q63 169 63 243Q63 245 63 248Q62 508 282 508M136 271L428 271Q428 288 424 309Q420 330 407.50 363Q395 396 362.50 418Q330 440 282 440Q208 440 174.50 401.50Q141 363 136 271M244 564L244 643L323 643L323 564L244 564Z"  horiz-adv-x="555" vert-adv-y="1000"  />

      
      <glyph glyph-name="uni0118" unicode="&#x0118;" d="M498-99L529-99Q522-131 494.50-152Q467-173 426-173Q360-173 360-109Q360-82 381.50-55Q403-28 424-14L445 0L87 0L87 667L508 667L508 599L159 599L159 369L466 369L466 299L159 299L159 68L508 68L508 0Q499-5 485.50-14.50Q472-24 450-49Q428-74 428-94Q428-129 454-129Q477-129 498-99Z"  horiz-adv-x="566" vert-adv-y="1000"  />

      
      <glyph glyph-name="uni0119" unicode="&#x0119;" d="M282 508Q328 508 365.50 493.50Q403 479 425 459.50Q447 440 463.50 408.50Q480 377 487 355Q494 333 498 302Q502 271 502 263.50Q502 256 502 242L500 207L136 207Q143 132 182 98Q221 64 298 64Q407 64 469 101L469 27Q465 24 457.50 19.50Q450 15 431 1Q412-13 397.50-27Q383-41 371-59.50Q359-78 359-94Q359-129 385-129Q407-129 428-99L460-99Q452-130 424.50-151.50Q397-173 356-173Q291-173 291-108Q291-54 372-2Q334-8 291-8Q247-8 210.50 2.50Q174 13 138.50 39Q103 65 83 117Q63 169 63 243Q63 245 63 248Q62 508 282 508M136 271L428 271Q428 288 424 309Q420 330 407.50 363Q395 396 362.50 418Q330 440 282 440Q208 440 174.50 401.50Q141 363 136 271Z"  horiz-adv-x="555" vert-adv-y="1000"  />

      
      <glyph glyph-name="uni011A" unicode="&#x011A;" d="M282 724L201 845L257 845L303 774L348 845L404 845L323 724L282 724M159 599L159 369L466 369L466 299L159 299L159 68L508 68L508 0L87 0L87 667L508 667L508 599L159 599Z"  horiz-adv-x="566" vert-adv-y="1000"  />

      
      <glyph glyph-name="uni011B" unicode="&#x011B;" d="M282 508Q328 508 365.50 493.50Q403 479 425 459.50Q447 440 463.50 408.50Q480 377 487 355Q494 333 498 302Q502 271 502 263.50Q502 256 502 242L500 207L136 207Q143 132 182 98Q221 64 298 64Q407 64 469 101L469 27Q396-8 291-8Q247-8 210.50 2.50Q174 13 138.50 39Q103 65 83 117Q63 169 63 243Q63 245 63 248Q62 508 282 508M136 271L428 271Q428 288 424 309Q420 330 407.50 363Q395 396 362.50 418Q330 440 282 440Q208 440 174.50 401.50Q141 363 136 271M261 564L181 684L237 684L282 614L327 684L383 684L303 564L261 564Z"  horiz-adv-x="555" vert-adv-y="1000"  />

      
      <glyph glyph-name="uni011C" unicode="&#x011C;" d="M377 844L457 724L401 724L356 795L311 724L255 724L335 844L377 844M370 293L370 363L603 363L603 43Q494-8 370-8Q61-8 61 334Q61 676 370 676Q477 676 580 634L580 564Q483 607 378 607Q251 607 192 541Q133 475 133 334Q133 192 192 126.50Q251 61 378 61Q458 61 531 85L531 293L370 293Z"  horiz-adv-x="677" vert-adv-y="1000"  />

      
      <glyph glyph-name="uni011D" unicode="&#x011D;" d="M300 684L380 564L324 564L279 634L234 564L178 564L259 684L300 684M272 508Q336 508 379.50 490Q423 472 440.50 444Q458 416 464 395.50Q470 375 470 355L470-21Q470-54 460.50-82Q451-110 429-136.50Q407-163 362-178Q317-193 253-193Q183-193 111-175L111-107Q169-125 245-125Q293-125 325.50-116.50Q358-108 372.50-92Q387-76 392.50-60.50Q398-45 398-23L398 27Q342 9 281 9Q248 9 219 14.50Q190 20 160 36.50Q130 53 108.50 79.50Q87 106 73.50 150Q60 194 60 252Q60 330 81 384.50Q102 439 137.50 464Q173 489 205 498.50Q237 508 272 508M398 99L398 358Q398 442 272 442Q245 442 224 435.50Q203 429 180 411Q157 393 144.50 352.50Q132 312 132 252Q132 196 144 159.50Q156 123 179 105.50Q202 88 225.50 82Q249 76 281 76Q341 76 398 99Z"  horiz-adv-x="538" vert-adv-y="1000"  />

      
      <glyph glyph-name="uni011E" unicode="&#x011E;" d="M417 809L465 809Q465 760 437 732.50Q409 705 360 705Q311 705 283 732.50Q255 760 255 809L303 809Q303 780 316.50 766.50Q330 753 360 753Q390 753 403.50 766.50Q417 780 417 809M370 293L370 363L603 363L603 43Q494-8 370-8Q61-8 61 334Q61 676 370 676Q477 676 580 634L580 564Q483 607 378 607Q251 607 192 541Q133 475 133 334Q133 192 192 126.50Q251 61 378 61Q458 61 531 85L531 293L370 293Z"  horiz-adv-x="677" vert-adv-y="1000"  />

      
      <glyph glyph-name="uni011F" unicode="&#x011F;" d="M337 649L385 649Q385 600 357.50 572.50Q330 545 280 545Q231 545 203 572.50Q175 600 175 649L223 649Q223 619 236.50 606Q250 593 280 593Q310 593 323.50 606Q337 619 337 649M272 508Q336 508 379.50 490Q423 472 440.50 444Q458 416 464 395.50Q470 375 470 355L470-21Q470-54 460.50-82Q451-110 429-136.50Q407-163 362-178Q317-193 253-193Q183-193 111-175L111-107Q169-125 245-125Q293-125 325.50-116.50Q358-108 372.50-92Q387-76 392.50-60.50Q398-45 398-23L398 27Q342 9 281 9Q248 9 219 14.50Q190 20 160 36.50Q130 53 108.50 79.50Q87 106 73.50 150Q60 194 60 252Q60 330 81 384.50Q102 439 137.50 464Q173 489 205 498.50Q237 508 272 508M398 99L398 358Q398 442 272 442Q245 442 224 435.50Q203 429 180 411Q157 393 144.50 352.50Q132 312 132 252Q132 196 144 159.50Q156 123 179 105.50Q202 88 225.50 82Q249 76 281 76Q341 76 398 99Z"  horiz-adv-x="538" vert-adv-y="1000"  />

      
      <glyph glyph-name="uni0120" unicode="&#x0120;" d="M321 724L321 804L401 804L401 724L321 724M370 293L370 363L603 363L603 43Q494-8 370-8Q61-8 61 334Q61 676 370 676Q477 676 580 634L580 564Q483 607 378 607Q251 607 192 541Q133 475 133 334Q133 192 192 126.50Q251 61 378 61Q458 61 531 85L531 293L370 293Z"  horiz-adv-x="677" vert-adv-y="1000"  />

      
      <glyph glyph-name="uni0121" unicode="&#x0121;" d="M236 564L236 643L316 643L316 564L236 564M272 508Q336 508 379.50 490Q423 472 440.50 444Q458 416 464 395.50Q470 375 470 355L470-21Q470-54 460.50-82Q451-110 429-136.50Q407-163 362-178Q317-193 253-193Q183-193 111-175L111-107Q169-125 245-125Q293-125 325.50-116.50Q358-108 372.50-92Q387-76 392.50-60.50Q398-45 398-23L398 27Q342 9 281 9Q248 9 219 14.50Q190 20 160 36.50Q130 53 108.50 79.50Q87 106 73.50 150Q60 194 60 252Q60 330 81 384.50Q102 439 137.50 464Q173 489 205 498.50Q237 508 272 508M398 99L398 358Q398 442 272 442Q245 442 224 435.50Q203 429 180 411Q157 393 144.50 352.50Q132 312 132 252Q132 196 144 159.50Q156 123 179 105.50Q202 88 225.50 82Q249 76 281 76Q341 76 398 99Z"  horiz-adv-x="538" vert-adv-y="1000"  />

      
      <glyph glyph-name="uni0122" unicode="&#x0122;" d="M370 293L370 363L603 363L603 43Q494-8 370-8Q61-8 61 334Q61 676 370 676Q477 676 580 634L580 564Q483 607 378 607Q251 607 192 541Q133 475 133 334Q133 192 192 126.50Q251 61 378 61Q458 61 531 85L531 293L370 293M410-50Q410-115 380-150Q350-185 310-194L310-140Q350-124 350-50L410-50Z"  horiz-adv-x="677" vert-adv-y="1000"  />

      
      <glyph glyph-name="uni0123" unicode="&#x0123;" d="M272 508Q336 508 379.50 490Q423 472 440.50 444Q458 416 464 395.50Q470 375 470 355L470-21Q470-54 460.50-82Q451-110 429-136.50Q407-163 362-178Q317-193 253-193Q183-193 111-175L111-107Q169-125 245-125Q293-125 325.50-116.50Q358-108 372.50-92Q387-76 392.50-60.50Q398-45 398-23L398 27Q342 9 281 9Q248 9 219 14.50Q190 20 160 36.50Q130 53 108.50 79.50Q87 106 73.50 150Q60 194 60 252Q60 330 81 384.50Q102 439 137.50 464Q173 489 205 498.50Q237 508 272 508M398 99L398 358Q398 442 272 442Q245 442 224 435.50Q203 429 180 411Q157 393 144.50 352.50Q132 312 132 252Q132 196 144 159.50Q156 123 179 105.50Q202 88 225.50 82Q249 76 281 76Q341 76 398 99M248 564Q248 629 277.50 663.50Q307 698 348 708L348 653Q307 637 307 564L248 564Z"  horiz-adv-x="538" vert-adv-y="1000"  />

      
      <glyph glyph-name="uni0124" unicode="&#x0124;" d="M357 844L438 724L382 724L337 795L291 724L235 724L316 844L357 844M514 667L586 667L586 0L514 0L514 299L159 299L159 0L87 0L87 667L159 667L159 368L514 368L514 667Z"  horiz-adv-x="674" vert-adv-y="1000"  />

      
      <glyph glyph-name="uni0125" unicode="&#x0125;" d="M151 844L231 724L175 724L130 795L85 724L29 724L109 844L151 844M317 508Q409 508 459 452.50Q509 397 509 296L509 0L437 0L437 296Q437 436 309 436Q239 436 166 406L166 0L94 0L94 689L166 689L166 476Q242 508 317 508Z"  horiz-adv-x="577" vert-adv-y="1000"  />

      
      <glyph glyph-name="uni0126" unicode="&#x0126;" d="M709 548L709 488L627 488L627 0L555 0L555 299L200 299L200 0L128 0L128 488L46 488L46 548L128 548L128 667L200 667L200 548L555 548L555 667L627 667L627 548L709 548M555 368L555 488L200 488L200 368L555 368Z"  horiz-adv-x="755" vert-adv-y="1000"  />

      
      <glyph glyph-name="uni0127" unicode="&#x0127;" d="M337 508Q429 508 479 452.50Q529 397 529 296L529 0L457 0L457 296Q457 367 425.50 401.50Q394 436 328 436Q259 436 186 406L186 0L114 0L114 565L46 565L46 626L114 626L114 689L186 689L186 626L317 626L317 565L186 565L186 476Q262 508 337 508Z"  horiz-adv-x="603" vert-adv-y="1000"  />

      
      <glyph glyph-name="uni0128" unicode="&#x0128;" d="M87 667L87 0L159 0L159 667L87 667M264 745Q238 713 208 709.50Q178 706 150.50 720.50Q123 735 95.50 749.50Q68 764 38 760.50Q8 757-18 725L-18 782Q8 814 38 817Q68 820 95.50 805.50Q123 791 150.50 776.50Q178 762 208 765Q238 768 264 800L264 745Z"  horiz-adv-x="245" vert-adv-y="1000"  />

      
      <glyph glyph-name="uni0129" unicode="&#x0129;" d="M171 0L171 499L99 499L99 0L171 0M276 585Q250 553 220 549.50Q190 546 162.50 560.50Q135 575 107.50 589.50Q80 604 50 600.50Q20 597-6 565L-6 622Q20 654 50 657Q80 660 107.50 645.50Q135 631 162.50 616.50Q190 602 220 605Q250 608 276 640L276 585Z"  horiz-adv-x="270" vert-adv-y="1000"  />

      
      <glyph glyph-name="uni012A" unicode="&#x012A;" d="M87 0L87 667L159 667L159 0L87 0M6 736L6 789L240 789L240 736L6 736Z"  horiz-adv-x="245" vert-adv-y="1000"  />

      
      <glyph glyph-name="uni012B" unicode="&#x012B;" d="M171 0L171 499L99 499L99 0L171 0M18 576L18 629L251 629L251 576L18 576Z"  horiz-adv-x="270" vert-adv-y="1000"  />

      
      <glyph glyph-name="uni012C" unicode="&#x012C;" d="M87 0L87 667L159 667L159 0L87 0M180 809L228 809Q228 760 200 732.50Q172 705 123 705Q74 705 46 732.50Q18 760 18 809L66 809Q66 780 79.50 766.50Q93 753 123 753Q153 753 166.50 766.50Q180 780 180 809Z"  horiz-adv-x="245" vert-adv-y="1000"  />

      
      <glyph glyph-name="uni012D" unicode="&#x012D;" d="M171 0L171 499L99 499L99 0L171 0M191 649L239 649Q239 600 211.50 572.50Q184 545 135 545Q86 545 58 572.50Q30 600 30 649L78 649Q78 620 91.50 606.50Q105 593 135 593Q191 593 191 649Z"  horiz-adv-x="270" vert-adv-y="1000"  />

      
      <glyph glyph-name="uni012E" unicode="&#x012E;" d="M149-98L181-98Q173-130 145.50-151.50Q118-173 77-173Q12-173 12-108Q12-91 19.50-73.50Q27-56 38.50-43Q50-30 61-20Q72-10 80-4L87 1L87 667L159 667L159 1Q156-1 150.50-4.50Q145-8 131.50-18.50Q118-29 107.50-40Q97-51 88.50-65.50Q80-80 80-93Q80-129 106-129Q128-129 149-98Z"  horiz-adv-x="245" vert-adv-y="1000"  />

      
      <glyph glyph-name="uni012F" unicode="&#x012F;" d="M83 667L163 667L163 588L83 588L83 667M106-129Q128-129 149-98L181-98Q173-130 145.50-151.50Q118-173 77-173Q12-173 12-108Q12-91 19.50-73.50Q27-56 38.50-43Q50-30 61-20Q72-10 80-4L87 1L87 499L159 499L159 1Q156-1 150.50-4.50Q145-8 131.50-18.50Q118-29 107.50-40Q97-51 88.50-65.50Q80-80 80-93Q80-129 106-129Z"  horiz-adv-x="245" vert-adv-y="1000"  />

      
      <glyph glyph-name="uni0130" unicode="&#x0130;" d="M87 0L87 667L159 667L159 0L87 0M83 724L83 804L163 804L163 724L83 724Z"  horiz-adv-x="245" vert-adv-y="1000"  />

      
      <glyph glyph-name="uni0131" unicode="&#x0131;" d="M171 0L99 0L99 499L171 499L171 0Z"  horiz-adv-x="270" vert-adv-y="1000"  />

      
      <glyph glyph-name="uni0134" unicode="&#x0134;" d="M337 845L417 724L361 724L316 795L271 724L215 724L295 845L337 845M280 667L352 667L352 199Q352 138 335 95Q318 52 288.50 31Q259 10 228 1Q197-8 161-8Q89-8 29 27L29 102Q86 62 152 62Q220 62 250 95.50Q280 129 280 205L280 667Z"  horiz-adv-x="447" vert-adv-y="1000"  />

      
      <glyph glyph-name="uni0135" unicode="&#x0135;" d="M162 684L242 564L186 564L141 634L96 564L40 564L120 684L162 684M105-25L105 499L177 499L177-29Q177-193 3-193L3-126Q65-125 85-101.50Q105-78 105-25Z"  horiz-adv-x="251" vert-adv-y="1000"  />

      
      <glyph glyph-name="uni0136" unicode="&#x0136;" d="M279 355L588 0L493 0L233 304L159 224L159 0L87 0L87 667L159 667L159 323L468 667L565 667L279 355M343-49Q343-114 313-149Q283-184 243-193L243-139Q284-122 284-49L343-49Z"  horiz-adv-x="632" vert-adv-y="1000"  />

      
      <glyph glyph-name="uni0137" unicode="&#x0137;" d="M273 270L513 0L418 0L226 219L164 152L164 0L92 0L92 689L164 689L164 254L389 499L486 499L273 270M313-49Q313-114 283-149Q253-184 212-193L212-139Q253-123 253-49L313-49Z"  horiz-adv-x="549" vert-adv-y="1000"  />

      
      <glyph glyph-name="uni0138" unicode="&#x0138;" d="M273 270L513 0L418 0L226 219L164 152L164 0L92 0L92 499L164 499L164 254L389 499L486 499L273 270Z"  horiz-adv-x="549" vert-adv-y="1000"  />

      
      <glyph glyph-name="uni0139" unicode="&#x0139;" d="M159 839L233 839L150 724L102 724L159 839M159 70L500 70L500 0L87 0L87 667L159 667L159 70Z"  horiz-adv-x="521" vert-adv-y="1000"  />

      
      <glyph glyph-name="uni013A" unicode="&#x013A;" d="M169 839L243 839L160 724L112 724L169 839M173 0L173 689L101 689L101 0L173 0Z"  horiz-adv-x="270" vert-adv-y="1000"  />

      
      <glyph glyph-name="uni013B" unicode="&#x013B;" d="M331-49Q331-114 301-149Q271-184 231-193L231-139Q271-123 271-49L331-49M159 70L500 70L500 0L87 0L87 667L159 667L159 70Z"  horiz-adv-x="521" vert-adv-y="1000"  />

      
      <glyph glyph-name="uni013C" unicode="&#x013C;" d="M167-49Q167-114 137-149Q107-184 66-193L66-139Q107-123 107-49L167-49M173 0L101 0L101 689L173 689L173 0Z"  horiz-adv-x="270" vert-adv-y="1000"  />

      
      <glyph glyph-name="uni013D" unicode="&#x013D;" d="M322 667Q322 602 292 567Q262 532 222 523L222 577Q263 594 263 667L322 667M159 70L500 70L500 0L87 0L87 667L159 667L159 70Z"  horiz-adv-x="521" vert-adv-y="1000"  />

      
      <glyph glyph-name="uni013E" unicode="&#x013E;" d="M247 689L307 689Q307 624 277 589.50Q247 555 207 546L207 600Q247 615 247 689M101 0L173 0L173 689L101 689L101 0Z"  horiz-adv-x="270" vert-adv-y="1000"  />

      
      <glyph glyph-name="uni013F" unicode="&#x013F;" d="M353 294L353 374L432 374L432 294L353 294M159 70L500 70L500 0L87 0L87 667L159 667L159 70Z"  horiz-adv-x="521" vert-adv-y="1000"  />

      
      <glyph glyph-name="uni0140" unicode="&#x0140;" d="M232 294L232 374L312 374L312 294L232 294M173 0L101 0L101 689L173 689L173 0Z"  horiz-adv-x="270" vert-adv-y="1000"  />

      
      <glyph glyph-name="uni0141" unicode="&#x0141;" d="M159 70L500 70L500 0L87 0L87 301L13 251L13 315L87 365L87 667L159 667L159 413L293 504L293 440L159 349L159 70Z"  horiz-adv-x="521" vert-adv-y="1000"  />

      
      <glyph glyph-name="uni0142" unicode="&#x0142;" d="M173 452L251 504L251 440L173 388L173 0L101 0L101 339L35 295L35 359L101 403L101 689L173 689L173 452Z"  horiz-adv-x="270" vert-adv-y="1000"  />

      
      <glyph glyph-name="uni0143" unicode="&#x0143;" d="M398 839L472 839L389 724L341 724L398 839M567 667L639 667L639 0L558 0L159 562L159 0L87 0L87 667L169 667L567 105L567 667Z"  horiz-adv-x="728" vert-adv-y="1000"  />

      
      <glyph glyph-name="uni0144" unicode="&#x0144;" d="M293 508Q387 508 439 460Q491 412 491 325L491 0L419 0L419 325Q419 346 414.50 362.50Q410 379 397.50 397.50Q385 416 357 426Q329 436 286 436Q224 436 154 416L154 0L82 0L82 459Q180 508 293 508M314 679L388 679L305 564L257 564L314 679Z"  horiz-adv-x="581" vert-adv-y="1000"  />

      
      <glyph glyph-name="uni0145" unicode="&#x0145;" d="M387-49Q387-114 357-149Q327-184 287-193L287-139Q328-122 328-49L387-49M567 667L639 667L639 0L558 0L159 562L159 0L87 0L87 667L169 667L567 105L567 667Z"  horiz-adv-x="728" vert-adv-y="1000"  />

      
      <glyph glyph-name="uni0146" unicode="&#x0146;" d="M293 508Q387 508 439 460Q491 412 491 325L491 0L419 0L419 325Q419 346 414.50 362.50Q410 379 397.50 397.50Q385 416 357 426Q329 436 286 436Q224 436 154 416L154 0L82 0L82 459Q180 508 293 508M323-49Q323-114 293-149Q263-184 223-193L223-139Q264-122 264-49L323-49Z"  horiz-adv-x="581" vert-adv-y="1000"  />

      
      <glyph glyph-name="uni0147" unicode="&#x0147;" d="M351 724L271 845L327 845L372 774L417 845L473 845L393 724L351 724M567 667L639 667L639 0L558 0L159 562L159 0L87 0L87 667L169 667L567 105L567 667Z"  horiz-adv-x="728" vert-adv-y="1000"  />

      
      <glyph glyph-name="uni0148" unicode="&#x0148;" d="M293 508Q387 508 439 460Q491 412 491 325L491 0L419 0L419 325Q419 346 414.50 362.50Q410 379 397.50 397.50Q385 416 357 426Q329 436 286 436Q224 436 154 416L154 0L82 0L82 459Q180 508 293 508M261 564L180 684L236 684L282 614L327 684L383 684L302 564L261 564Z"  horiz-adv-x="581" vert-adv-y="1000"  />

      
      <glyph glyph-name="uni0149" unicode="&#x0149;" d="M293 508Q387 508 439 460Q491 412 491 325L491 0L419 0L419 325Q419 346 414.50 362.50Q410 379 397.50 397.50Q385 416 357 426Q329 436 286 436Q224 436 154 416L154 0L82 0L82 459Q180 508 293 508M133 664Q133 599 102.50 564Q72 529 32 520L32 574Q73 590 73 664L133 664Z"  horiz-adv-x="581" vert-adv-y="1000"  />

      
      <glyph glyph-name="uni014A" unicode="&#x014A;" d="M566 667L638 667L638-9Q638-172 464-172L464-105Q524-104 544.50-82.50Q565-61 566-12L159 562L159 0L87 0L87 667L169 667L566 105L566 667Z"  horiz-adv-x="728" vert-adv-y="1000"  />

      
      <glyph glyph-name="uni014B" unicode="&#x014B;" d="M293 508Q387 508 439 460Q491 412 491 325L491-9Q491-172 317-172L317-105Q378-104 398.50-80.50Q419-57 419-4L419 325Q419 346 414.50 362.50Q410 379 397.50 397.50Q385 416 357 426Q329 436 286 436Q224 436 154 416L154 0L82 0L82 459Q180 508 293 508Z"  horiz-adv-x="581" vert-adv-y="1000"  />

      
      <glyph glyph-name="uni014C" unicode="&#x014C;" d="M61 334Q61 334 61 505Q61 676 370 676Q679 676 679 334Q679-8 370-8Q61-8 61 334M190 126Q190 126 218.50 93Q247 60 370 60Q493 60 550 126Q607 192 607 334Q607 476 550 542Q493 608 370 608Q247 608 190 542Q133 476 133 334Q133 192 190 126M253 736L253 789L487 789L487 736L253 736Z"  horiz-adv-x="747" vert-adv-y="1000"  />

      
      <glyph glyph-name="uni014D" unicode="&#x014D;" d="M70 120.50Q70 120.50 59.50 147.25Q49 174 49 250Q49 326 70 379.50Q91 433 127 459.50Q163 486 201 497Q239 508 284 508Q329 508 366.50 497Q404 486 440 459.50Q476 433 497 379.50Q518 326 518 250Q518 174 497 120.50Q476 67 440 40.50Q404 14 366.50 3Q329-8 284-8Q239-8 201 3Q163 14 127 40.50Q91 67 70 120.50M160 396.50Q160 396.50 140.50 373.75Q121 351 121 250Q121 149 160 103.50Q199 58 284 58Q369 58 407.50 104Q446 150 446 250Q446 350 407.50 396Q369 442 284 442Q199 442 160 396.50M167 576L167 629L400 629L400 576L167 576Z"  horiz-adv-x="564" vert-adv-y="1000"  />

      
      <glyph glyph-name="uni014E" unicode="&#x014E;" d="M61 334Q61 334 61 505Q61 676 370 676Q679 676 679 334Q679-8 370-8Q61-8 61 334M190 125Q190 125 218.50 92Q247 59 370 59Q493 59 550 125Q607 191 607 334Q607 476 550 542Q493 608 370 608Q247 608 190 542Q133 476 133 334Q133 191 190 125M427 809L475 809Q475 760 447 732.50Q419 705 370 705Q321 705 293 732.50Q265 760 265 809L313 809Q313 780 326.50 766.50Q340 753 370 753Q400 753 413.50 766.50Q427 780 427 809Z"  horiz-adv-x="747" vert-adv-y="1000"  />

      
      <glyph glyph-name="uni014F" unicode="&#x014F;" d="M201 497Q201 497 220 502.50Q239 508 284 508Q329 508 366.50 497Q404 486 440 459.50Q476 433 497 379.50Q518 326 518 250Q518 174 497 120.50Q476 67 440 40.50Q404 14 366.50 3Q329-8 284-8Q239-8 201 3Q163 14 127 40.50Q91 67 70 120.50Q49 174 49 250Q49 326 70 379.50Q91 433 127 459.50Q163 486 201 497M284 58Q369 58 407.50 103.50Q446 149 446 250Q446 350 407.50 395.50Q369 441 284 441Q198 441 159.50 395.50Q121 350 121 250Q121 149 159.50 103.50Q198 58 284 58M341 649L389 649Q389 600 361 572.50Q333 545 284 545Q235 545 207 572.50Q179 600 179 649L227 649Q227 620 240.50 606.50Q254 593 284 593Q341 593 341 649Z"  horiz-adv-x="564" vert-adv-y="1000"  />

      
      <glyph glyph-name="uni0150" unicode="&#x0150;" d="M61 334Q61 334 61 505Q61 676 370 676Q679 676 679 334Q679-8 370-8Q61-8 61 334M190 126Q190 126 218.50 93Q247 60 370 60Q493 60 550 126Q607 192 607 334Q607 476 550 542Q493 608 370 608Q247 608 190 542Q133 476 133 334Q133 192 190 126M452 839L526 839L443 724L395 724L452 839M332 839L406 839L323 724L275 724L332 839Z"  horiz-adv-x="747" vert-adv-y="1000"  />

      
      <glyph glyph-name="uni0151" unicode="&#x0151;" d="M201 497Q201 497 220 502.50Q239 508 284 508Q329 508 366.50 497Q404 486 440 459.50Q476 433 497 379.50Q518 326 518 250Q518 174 497 120.50Q476 67 440 40.50Q404 14 366.50 3Q329-8 284-8Q239-8 201 3Q163 14 127 40.50Q91 67 70 120.50Q49 174 49 250Q49 326 70 379.50Q91 433 127 459.50Q163 486 201 497M160 103.50Q160 103.50 179.50 80.75Q199 58 284 58Q369 58 407.50 104Q446 150 446 250Q446 350 407.50 396Q369 442 284 442Q199 442 160 396.50Q121 351 121 250Q121 149 160 103.50M364 679L438 679L355 564L308 564L364 679M245 679L319 679L235 564L188 564L245 679Z"  horiz-adv-x="564" vert-adv-y="1000"  />

      
      <glyph glyph-name="uni0152" unicode="&#x0152;" d="M925 599L575 599L575 369L882 369L882 299L575 299L575 68L925 68L925 0L503 0L503 13Q446-8 369-8Q60-8 60 334Q60 676 369 676Q447 676 503 654L503 667L925 667L925 599M369 60Q452 60 503 89L503 579Q450 608 369 608Q246 608 189 542Q132 476 132 334Q132 192 189 126Q246 60 369 60Z"  horiz-adv-x="991" vert-adv-y="1000"  />

      
      <glyph glyph-name="uni0153" unicode="&#x0153;" d="M662 508Q708 508 745 493.50Q782 479 804.50 459.50Q827 440 843 408.50Q859 377 866 355Q873 333 877 302Q881 271 881 263.50Q881 256 881 242L880 207L516 207Q523 132 562 98Q601 64 678 64Q785 64 849 101L849 27Q776-8 671-8Q536-8 479 85Q421-8 284-8Q239-8 201.50 3Q164 14 128 40.50Q92 67 71 120.50Q50 174 50 250Q50 326 71 379.50Q92 433 128 459.50Q164 486 201.50 497Q239 508 284 508Q420 508 478 417Q533 508 662 508M160.50 103.50Q160.50 103.50 179.75 80.75Q199 58 284 58Q369 58 408 103.50Q447 149 447 250Q447 351 408 396.50Q369 442 284 442Q199 442 160.50 396.50Q122 351 122 250Q122 149 160.50 103.50M515 271L808 271Q808 287 804 308.50Q800 330 787 363Q774 396 741.50 418Q709 440 662 440Q588 440 554 401.50Q520 363 515 271Z"  horiz-adv-x="938" vert-adv-y="1000"  />

      
      <glyph glyph-name="uni0154" unicode="&#x0154;" d="M314 839L388 839L305 724L257 724L314 839M405 280L588 0L503 0L329 269L159 269L159 0L87 0L87 667L332 667Q441 667 499.50 617.50Q558 568 558 473Q558 430 544.50 395Q531 360 513.50 340.50Q496 321 472 306.50Q448 292 433 287.50Q418 283 405 280M328 337Q378 337 411.50 348.50Q445 360 460 380.50Q475 401 480.50 421Q486 441 486 468Q486 495 480.50 515Q475 535 460 555.50Q445 576 411.50 587.50Q378 599 328 599L159 599L159 337L328 337Z"  horiz-adv-x="621" vert-adv-y="1000"  />

      
      <glyph glyph-name="uni0155" unicode="&#x0155;" d="M231 679L305 679L222 564L175 564L231 679M323 430Q239 428 153 404L153 0L81 0L81 451Q194 499 323 499L323 430Z"  horiz-adv-x="343" vert-adv-y="1000"  />

      
      </font>
</defs>
</svg>
